<?xml version="1.0" encoding="UTF-8" standalone="no"?>
<svg width="90px" height="89px" viewBox="0 0 90 89" version="1.1" xmlns="http://www.w3.org/2000/svg" xmlns:xlink="http://www.w3.org/1999/xlink" xmlns:sketch="http://www.bohemiancoding.com/sketch/ns">
    <!-- Generator: Sketch 3.5.2 (25235) - http://www.bohemiancoding.com/sketch -->
    <title>discipline-07</title>
    <desc>Created with Sketch.</desc>
    <defs></defs>
    <g id="Page-1" stroke="none" stroke-width="1" fill="none" fill-rule="evenodd" sketch:type="MSPage">
        <path d="M45,21.5 C28.871,21.5 14.664,13.149 6.449,0.551 L-0.027,7.027 C6.52,16.349 15.89,23.537 26.822,27.383 C17.611,33.359 11.5,43.726 11.5,55.5 C11.5,73.972 26.528,89 45,89 C63.472,89 78.5,73.972 78.5,55.5 C78.5,43.726 72.389,33.359 63.178,27.383 C74.109,23.537 83.48,16.349 90.027,7.027 L83.551,0.551 C75.336,13.149 61.129,21.5 45,21.5 L45,21.5 Z M69.75,55.25 C69.75,68.897 58.647,80 45,80 C31.353,80 20.25,68.897 20.25,55.25 C20.25,41.603 31.353,30.5 45,30.5 C58.647,30.5 69.75,41.603 69.75,55.25 L69.75,55.25 Z" id="discipline-07" fill="#A9C000" sketch:type="MSShapeGroup"></path>
    </g>
</svg>