<?xml version="1.0" encoding="UTF-8" standalone="no"?>
<svg width="77px" height="90px" viewBox="0 0 77 90" version="1.1" xmlns="http://www.w3.org/2000/svg" xmlns:xlink="http://www.w3.org/1999/xlink" xmlns:sketch="http://www.bohemiancoding.com/sketch/ns">
    <!-- Generator: Sketch 3.5.2 (25235) - http://www.bohemiancoding.com/sketch -->
    <title>discipline-04</title>
    <desc>Created with Sketch.</desc>
    <defs></defs>
    <g id="Page-1" stroke="none" stroke-width="1" fill="none" fill-rule="evenodd" sketch:type="MSPage">
        <path d="M17.833,76.5 C27.222,76.5 34.833,68.889 34.833,59.5 C34.833,58.286 34.701,57.104 34.458,55.961 C34.459,55.961 34.47,55.963 34.47,55.963 C33.659,51.517 31.617,47.901 29.628,44.378 C27.162,40.01 24.832,35.885 24.832,30 C24.832,18.421 34.252,9 45.832,9 C57.412,9 66.832,18.421 66.832,30 C66.832,34.021 65.676,37.769 63.707,40.966 L63.735,40.983 C63.07,42.068 62.304,43.275 61.477,44.579 C56.142,52.992 48.833,64.512 48.833,73.5 C48.833,77.723 50.444,81.945 53.666,85.167 C60.109,91.611 70.557,91.611 77,85.167 L70.636,78.803 C67.712,81.727 62.954,81.727 60.03,78.803 C58.568,77.341 57.837,75.42 57.837,73.5 L57.834,73.5 C57.834,67.126 64.602,56.459 69.08,49.401 C69.942,48.042 70.742,46.781 71.433,45.653 L71.419,45.644 C74.217,41.086 75.835,35.729 75.835,30 C75.835,13.458 62.377,0 45.835,0 C29.293,0 15.835,13.458 15.835,30 C15.835,35.005 17.002,39.034 18.543,42.536 C18.307,42.526 18.074,42.5 17.835,42.5 C8.446,42.5 0.835,50.111 0.835,59.5 C0.835,68.889 8.444,76.5 17.833,76.5 L17.833,76.5 Z M17.833,51.5 C22.244,51.5 25.833,55.089 25.833,59.5 C25.833,63.911 22.244,67.5 17.833,67.5 C13.422,67.5 9.833,63.911 9.833,59.5 C9.833,55.089 13.422,51.5 17.833,51.5 L17.833,51.5 Z" id="discipline-04" fill="#A9C000" sketch:type="MSShapeGroup"></path>
    </g>
</svg>