<?xml version="1.0" encoding="UTF-8" standalone="no"?>
<svg width="70px" height="70px" viewBox="0 0 70 70" version="1.1" xmlns="http://www.w3.org/2000/svg" xmlns:xlink="http://www.w3.org/1999/xlink">
    <!-- Generator: Sketch 3.8.3 (29802) - http://www.bohemiancoding.com/sketch -->
    <title>icon-tick</title>
    <desc>Created with Sketch.</desc>
    <defs></defs>
    <g id="Page-1" stroke="none" stroke-width="1" fill="none" fill-rule="evenodd">
        <g id="icon-tick" fill="#231F1F">
            <path d="M35,65 C18.43,65 5,51.5715524 5,35.001 C5,18.4304477 18.43,5 35,5 C51.57,5 65,18.4304477 65,35.001 C65,51.5715524 51.57,65 35,65 L35,65 Z M35,11 C21.746,11 11,21.7443581 11,35.0008 C11,48.2552418 21.746,58.9996 35,58.9996 C48.254,58.9996 59,48.2552418 59,35.0008 C59,21.7443581 48.254,11 35,11 L35,11 Z M46.7333333,26 L51,30.1818182 L36.0666667,44.8181818 L31.8,40.6363636 L46.7333333,26 L46.7333333,26 Z M19,36.4545455 L23.2666667,32.2727273 L36.0666667,44.8181818 L31.8,49 L19,36.4545455 L19,36.4545455 Z"></path>
        </g>
    </g>
</svg>