<?xml version="1.0" encoding="UTF-8" standalone="no"?>
<svg width="70px" height="70px" viewBox="0 0 70 70" version="1.1" xmlns="http://www.w3.org/2000/svg" xmlns:xlink="http://www.w3.org/1999/xlink">
    <!-- Generator: Sketch 3.8.3 (29802) - http://www.bohemiancoding.com/sketch -->
    <title>icon-info</title>
    <desc>Created with Sketch.</desc>
    <defs></defs>
    <g id="Page-1" stroke="none" stroke-width="1" fill="none" fill-rule="evenodd">
        <g id="icon-info" fill="#231F1F">
            <path d="M35,65 C18.43,65 5,51.5715524 5,35.001 C5,18.4304477 18.43,5 35,5 C51.57,5 65,18.4304477 65,35.001 C65,51.5715524 51.57,65 35,65 Z M35,11 C21.746,11 11,21.7443581 11,35.0008 C11,48.2552418 21.746,58.9996 35,58.9996 C48.254,58.9996 59,48.2552418 59,35.0008 C59,21.7443581 48.254,11 35,11 Z M32,48.4826494 L38.8400002,48.4826494 L38.8400002,29 L32,29 L32,48.4826494 Z M32,27.0421681 L38.8400002,27.0421681 L38.8400002,22 L32,22 L32,27.0421681 Z"></path>
        </g>
    </g>
</svg>