<?xml version="1.0" encoding="UTF-8" standalone="no"?>
<svg width="90px" height="90px" viewBox="0 0 90 90" version="1.1" xmlns="http://www.w3.org/2000/svg" xmlns:xlink="http://www.w3.org/1999/xlink" xmlns:sketch="http://www.bohemiancoding.com/sketch/ns">
    <!-- Generator: Sketch 3.5.2 (25235) - http://www.bohemiancoding.com/sketch -->
    <title>discipline-08</title>
    <desc>Created with Sketch.</desc>
    <defs></defs>
    <g id="Page-1" stroke="none" stroke-width="1" fill="none" fill-rule="evenodd" sketch:type="MSPage">
        <path d="M22,43.5 L22,34.5 C15.107,34.5 9.5,28.893 9.5,22 C9.5,15.107 15.107,9.5 22,9.5 C28.251,9.5 33.079,14.556 36.349,24.527 C39.961,35.541 40.5,48.973 40.5,56 L40.5,90 L49.5,90 L49.5,56 C49.5,34.549 54.345,9.5 68,9.5 C74.893,9.5 80.5,15.107 80.5,22 C80.5,28.893 74.893,34.5 68,34.5 L68,43.5 C79.855,43.5 89.5,33.855 89.5,22 C89.5,10.145 79.855,0.5 68,0.5 C55.602,0.5 47.25,11.167 45,25.337 C42.237,11 34.824,0.5 22,0.5 C10.145,0.5 0.5,10.145 0.5,22 C0.5,33.855 10.145,43.5 22,43.5 L22,43.5 Z" id="discipline-08" fill="#A9C000" sketch:type="MSShapeGroup"></path>
    </g>
</svg>