<?xml version="1.0" encoding="UTF-8" standalone="no"?>
<svg width="90px" height="75px" viewBox="0 0 90 75" version="1.1" xmlns="http://www.w3.org/2000/svg" xmlns:xlink="http://www.w3.org/1999/xlink" xmlns:sketch="http://www.bohemiancoding.com/sketch/ns">
    <!-- Generator: Sketch 3.5.2 (25235) - http://www.bohemiancoding.com/sketch -->
    <title>discipline-05</title>
    <desc>Created with Sketch.</desc>
    <defs></defs>
    <g id="Page-1" stroke="none" stroke-width="1" fill="none" fill-rule="evenodd" sketch:type="MSPage">
        <path d="M0,66 L90,66 L90,75 L0,75 L0,66 Z M75.25,30.75 C75.25,14.07 61.68,0.5 45,0.5 C28.32,0.5 14.75,14.07 14.75,30.75 C14.75,36.309 16.264,41.519 18.892,46 L0,46 L0,55 L31,55 L31,46.695 C30.741,46.467 30.482,46.239 30.235,46 C26.244,42.135 23.75,36.732 23.75,30.75 C23.75,19.033 33.282,9.5 45,9.5 C56.718,9.5 66.25,19.033 66.25,30.75 C66.25,36.732 63.756,42.135 59.765,46 C59.518,46.24 59.259,46.468 59,46.695 L59,55 L90,55 L90,46 L71.108,46 C73.736,41.519 75.25,36.309 75.25,30.75 Z" id="discipline-05" fill="#A9C000" sketch:type="MSShapeGroup"></path>
    </g>
</svg>