<?xml version="1.0" encoding="UTF-8" standalone="no"?>
<svg width="90px" height="90px" viewBox="0 0 90 90" version="1.1" xmlns="http://www.w3.org/2000/svg" xmlns:xlink="http://www.w3.org/1999/xlink" xmlns:sketch="http://www.bohemiancoding.com/sketch/ns">
    <!-- Generator: Sketch 3.5.2 (25235) - http://www.bohemiancoding.com/sketch -->
    <title>discipline-02</title>
    <desc>Created with Sketch.</desc>
    <defs></defs>
    <g id="Page-1" stroke="none" stroke-width="1" fill="none" fill-rule="evenodd" sketch:type="MSPage">
        <path d="M8,80 L17,80 L17,17 C17,11.255 20.589,9 25,9 C29.411,9 33,11.255 33,17 L33,68.562 L42,59 L42,17 C42,11.255 45.589,9 50,9 C54.411,9 58,11.255 58,17 L58,47.01 L50,55.655 L25.364,82.277 L31.969,88.389 L50,68.906 L58,60.261 L58,74 C58,82.822 65.178,90 74,90 L85,90 L85,81 L74,81 C70.141,81 67,77.86 67,74 L67,50.535 L84.136,32.017 L84.125,32.007 C87.749,28.047 89.969,22.778 89.969,17 L89.969,16 L90,16 C90,7.178 82.822,0 74,0 C69.34,0 65.152,2.515 62.226,5.705 C59.134,2.5 54.804,0 50,0 C45.05,0 40.607,2.629 37.5,6.006 C34.393,2.629 29.95,0 25,0 C20.05,0 15.607,2.629 12.5,6.006 C9.393,2.629 4.95,0 0,0 L0,9 C4.411,9 8,11.255 8,17 L8,80 L8,80 Z M67,16 C67,10.807 70.141,9 74,9 C77.859,9 81,12.14 81,16 L81,17 L80.969,17 C80.969,20.451 79.632,23.588 77.464,25.949 L77.478,25.962 L67,37.285 L67,17 C67,16.663 66.969,16.333 66.949,16 L67,16 L67,16 Z" id="discipline-02" fill="#A9C000" sketch:type="MSShapeGroup"></path>
    </g>
</svg>