<?xml version="1.0" encoding="UTF-8" standalone="no"?>
<svg width="90px" height="60px" viewBox="0 0 90 60" version="1.1" xmlns="http://www.w3.org/2000/svg" xmlns:xlink="http://www.w3.org/1999/xlink" xmlns:sketch="http://www.bohemiancoding.com/sketch/ns">
    <!-- Generator: Sketch 3.5.2 (25235) - http://www.bohemiancoding.com/sketch -->
    <title>discipline-03</title>
    <desc>Created with Sketch.</desc>
    <defs></defs>
    <g id="Page-1" stroke="none" stroke-width="1" fill="none" fill-rule="evenodd" sketch:type="MSPage">
        <path d="M70,19.5 C58.972,19.5 50,28.472 50,39.5 C50,43.562 51.225,47.341 53.314,50.5 L0,50.5 L0,59.5 L70,59.5 C81.028,59.5 90,50.528 90,39.5 C90,28.472 81.028,19.5 70,19.5 L70,19.5 Z M70,50.5 C63.935,50.5 59,45.565 59,39.5 C59,33.435 63.935,28.5 70,28.5 C76.065,28.5 81,33.435 81,39.5 C81,45.565 76.065,50.5 70,50.5 Z M0,20.481 C0,31.52 8.972,40.5 20,40.5 C31.028,40.5 40,31.52 40,20.481 C40,16.411 38.773,12.626 36.681,9.462 L90,9.462 L90,0.462 L20,0.462 C8.972,0.462 0,9.442 0,20.481 Z M31,20.481 C31,26.557 26.065,31.5 20,31.5 C13.934,31.5 9,26.557 9,20.481 C9,14.405 13.935,9.462 20,9.462 C26.065,9.462 31,14.405 31,20.481 Z" id="discipline-03" fill="#A9C000" sketch:type="MSShapeGroup"></path>
    </g>
</svg>