<?xml version="1.0" encoding="UTF-8" standalone="no"?>
<svg width="88px" height="90px" viewBox="0 0 88 90" version="1.1" xmlns="http://www.w3.org/2000/svg" xmlns:xlink="http://www.w3.org/1999/xlink" xmlns:sketch="http://www.bohemiancoding.com/sketch/ns">
    <!-- Generator: Sketch 3.5.2 (25235) - http://www.bohemiancoding.com/sketch -->
    <title>discipline-06</title>
    <desc>Created with Sketch.</desc>
    <defs></defs>
    <g id="Page-1" stroke="none" stroke-width="1" fill="none" fill-rule="evenodd" sketch:type="MSPage">
        <path d="M87.489,6.572 L80.902,-0.016 C69.952,6.041 57.374,9.5 44,9.5 C30.637,9.5 18.069,6.047 7.125,-1.86517468e-14 L0.538,6.587 C7.026,10.434 14.064,13.446 21.5,15.481 L21.5,74.518 C14.063,76.553 7.026,79.565 0.538,83.412 L7.125,90 C18.069,83.953 30.637,80.5 44,80.5 C57.374,80.5 69.952,83.959 80.901,90.016 L87.488,83.428 C80.992,79.574 73.946,76.557 66.499,74.519 L66.499,15.481 C73.947,13.443 80.993,10.426 87.489,6.572 L87.489,6.572 Z M57.5,72.58 C53.101,71.877 48.594,71.5 44,71.5 C39.405,71.5 34.899,71.876 30.5,72.58 L30.5,17.42 C34.899,18.123 39.405,18.5 44,18.5 C48.594,18.5 53.101,18.124 57.5,17.42 L57.5,72.58 L57.5,72.58 Z" id="discipline-06" fill="#A9C000" sketch:type="MSShapeGroup"></path>
    </g>
</svg>