<?xml version="1.0" encoding="UTF-8" standalone="no"?>
<svg width="70px" height="70px" viewBox="0 0 70 70" version="1.1" xmlns="http://www.w3.org/2000/svg" xmlns:xlink="http://www.w3.org/1999/xlink">
    <!-- Generator: Sketch 3.8.3 (29802) - http://www.bohemiancoding.com/sketch -->
    <title>icon-play</title>
    <desc>Created with Sketch.</desc>
    <defs></defs>
    <g id="Page-1" stroke="none" stroke-width="1" fill="none" fill-rule="evenodd">
        <g id="icon-play" fill="#231F1F">
            <path d="M5,35.001 C5,18.4304477 18.43,5 35,5 C51.57,5 65,18.4304477 65,35.001 C65,51.5715524 51.57,65 35,65 C18.43,65 5,51.5715524 5,35.001 Z M9,35.0010834 C9,49.3601817 20.6415,61 35,61 C49.3585,61 61,49.3601817 61,35.0010834 C61,20.6398183 49.3585,9 35,9 C20.6415,9 9,20.6398183 9,35.0010834 Z M29,24 L45,34.5 L29,45 L29,24 Z"></path>
        </g>
    </g>
</svg>