<?xml version="1.0" encoding="UTF-8" standalone="no"?>
<svg width="70px" height="70px" viewBox="0 0 70 70" version="1.1" xmlns="http://www.w3.org/2000/svg" xmlns:xlink="http://www.w3.org/1999/xlink">
    <!-- Generator: Sketch 3.6.1 (26313) - http://www.bohemiancoding.com/sketch -->
    <title>icon-stat-quote</title>
    <desc>Created with Sketch.</desc>
    <defs></defs>
    <g id="Page-1" stroke="none" stroke-width="1" fill="none" fill-rule="evenodd">
        <g id="icon-stat-quote" fill="#000000">
            <path d="M35,70 C54.3299662,70 70,54.3299662 70,35 C70,15.6700338 54.3299662,0 35,0 C15.6700338,0 0,15.6700338 0,35 C0,54.3299662 15.6700338,70 35,70 Z M35,64 C51.0162577,64 64,51.0162577 64,35 C64,18.9837423 51.0162577,6 35,6 C18.9837423,6 6,18.9837423 6,35 C6,51.0162577 18.9837423,64 35,64 Z M50.765676,26.453468 L49.770396,21.630188 C40.660916,21.783308 35.607956,25.840988 35.607956,35.945748 L35.607956,46.280188 L48.009516,46.280188 L48.009516,34.031748 L43.263956,34.031748 C42.881156,29.668988 45.483036,26.989388 50.765676,26.453468 Z M31.320596,26.453468 L30.326476,21.630188 C21.215836,21.783308 16.164036,25.840988 16.164036,35.945748 L16.164036,46.280188 L28.565596,46.280188 L28.565596,34.031748 L23.818876,34.031748 C23.436076,29.668988 26.039116,26.989388 31.320596,26.453468 Z" id="Combined-Shape"></path>
        </g>
    </g>
</svg>