<?xml version="1.0" encoding="UTF-8" standalone="no"?>
<svg width="70px" height="70px" viewBox="0 0 70 70" version="1.1" xmlns="http://www.w3.org/2000/svg" xmlns:xlink="http://www.w3.org/1999/xlink">
    <!-- Generator: Sketch 3.6.1 (26313) - http://www.bohemiancoding.com/sketch -->
    <title>icon-weibo</title>
    <desc>Created with Sketch.</desc>
    <defs></defs>
    <g id="Page-1" stroke="none" stroke-width="1" fill="none" fill-rule="evenodd">
        <g id="icon-weibo" fill="#221F20">
            <path d="M52.6821225,35.780254 C50.4405759,34.8825238 50.1688908,33.9767267 50.7918631,31.7450778 C52.0966439,27.0731931 49.7708807,24.1172522 44.954382,24.3218057 C42.2311856,24.437047 39.5345231,25.2788851 36.8384375,25.8533633 C35.8509111,26.0636788 34.9003015,26.4468563 33.4432386,26.9055169 C33.727037,25.127919 33.9796869,23.8481637 34.1285081,22.5568842 C34.5968909,18.5009646 32.4043746,15.8262127 28.4012008,16.2670109 C25.7212663,16.5614525 22.8902034,17.3681421 20.5702084,18.7112801 C10.6159189,24.4721956 3.17601466,32.4077156 0.179979421,43.8644353 C-0.0426754891,45.2098782 -0.0767082343,46.3893735 0.179979421,47.8978829 C0.56472249,50.1543087 3.31964438,55.4433109 6.81001966,57.9722825 C16.6541354,65.103994 27.5538431,66.4212027 39.1007498,63.6565625 C46.7079336,61.835749 53.2306842,58.1013528 57.5568806,51.3879674 C61.8052055,44.7955855 59.8739915,38.661288 52.6821225,35.780254 L52.6821225,35.780254 Z M43.8762939,53.7982405 C39.3839715,57.8472456 32.9754325,60.0725562 25.8199036,60.0685228 C21.1095409,60.1538014 16.6593269,59.1834692 12.6624982,56.6193489 C5.76538743,52.1946569 5.01955116,44.7823327 11.0410398,39.2179037 C16.4926241,34.1795515 23.2022664,32.5650201 30.4564325,32.7649638 C34.7503267,32.8830862 38.8059917,33.8176936 42.4717221,36.1801415 C49.4397825,40.6710973 50.0535256,48.2303542 43.8762939,53.7982405 L43.8762939,53.7982405 Z M69.5359455,22.4212452 C67.5343586,12.3168828 60.4515098,5.80113637 50.2336107,5.00539479 C49.0793815,4.91550653 47.0939457,5.96535531 46.7593865,6.92646824 C46.117379,8.77263481 47.7826762,9.44333952 49.4808525,9.6876512 C59.1663411,11.0809192 63.7774897,15.688845 65.2143637,25.1271123 C65.3776055,26.1988569 66.1297869,27.7332956 66.9471496,27.9948935 C67.7264418,28.2432386 69.4915299,28.1660269 69.9385702,26.6356217 C70.1912201,25.7690066 69.5861294,22.6736237 69.5359455,22.4212452 L69.5359455,22.4212452 Z M49.1939392,14.6911429 C48.3108183,14.6703995 46.9621986,15.2408442 46.652443,16.357533 C46.4545916,17.070877 46.8531785,18.564405 47.9456873,18.9982887 C51.7954253,20.5263891 54.4851658,22.6485587 55.6965008,26.6941067 C55.9122338,27.4143651 57.4835084,28.2239357 58.3239441,28.1230995 C59.137269,28.0251443 60.0971078,27.1233807 60.1824781,26.4440329 C60.1046066,21.2299376 53.8385437,14.8011984 49.1939392,14.6911429 L49.1939392,14.6911429 Z M25.2125633,40.0936228 C20.4860495,39.9829911 16.4309614,43.2241543 16.2746415,47.2374346 C16.1304349,50.944173 18.9303493,53.6655976 23.2842334,54.0505038 C27.8924978,54.4584582 32.4003945,51.0922581 32.6611199,47.0484388 C32.9143466,43.1296564 29.776989,40.2007973 25.2125633,40.0936228 L25.2125633,40.0936228 Z"></path>
        </g>
    </g>
</svg>