<?xml version="1.0" encoding="UTF-8" standalone="no"?>
<svg width="64px" height="52px" viewBox="0 0 64 52" version="1.1" xmlns="http://www.w3.org/2000/svg" xmlns:xlink="http://www.w3.org/1999/xlink">
    <!-- Generator: Sketch 3.6.1 (26313) - http://www.bohemiancoding.com/sketch -->
    <title>icon-twitter</title>
    <desc>Created with Sketch.</desc>
    <defs></defs>
    <g id="Page-1" stroke="none" stroke-width="1" fill="none" fill-rule="evenodd">
        <path d="M64,6.15503959 C61.6438261,7.19965761 59.1144348,7.90487909 56.4577391,8.2227156 C59.170087,6.59806334 61.2514783,4.02476996 62.2323478,0.959768885 C59.6946087,2.46340681 56.8841739,3.55670875 53.8942609,4.14508881 C51.4984348,1.59335545 48.0855652,0 44.3095652,0 C37.058087,0 31.1791304,5.87754119 31.1791304,13.1265782 C31.1791304,14.1558956 31.2946087,15.1573935 31.5193043,16.1178579 C20.6073043,15.5712069 10.9293913,10.3446394 4.45495652,2.40220415 C3.32452174,4.34191098 2.67686957,6.59667237 2.67686957,9.00235395 C2.67686957,13.5563878 4.99478261,17.5735074 8.51756522,19.9284186 C6.3666087,19.8602611 4.34086957,19.27049 2.57043478,18.2870747 C2.56904348,18.3413225 2.56904348,18.3962658 2.56904348,18.4519046 C2.56904348,24.8121121 7.09634783,30.1179649 13.101913,31.3232399 C12.0013913,31.6236893 10.8410435,31.7850417 9.64243478,31.7850417 C8.79721739,31.7850417 7.97565217,31.702279 7.17286957,31.5492724 C8.84382609,36.7640167 13.6946087,40.5599722 19.4386087,40.6649904 C14.944,44.1869249 9.28417391,46.2852022 3.13182609,46.2852022 C2.07234783,46.2852022 1.02747826,46.2226086 0,46.1002033 C5.81008696,49.8259148 12.7102609,52 20.128,52 C44.2782609,52 57.4866087,31.9957736 57.4866087,14.6482987 C57.4866087,14.0807832 57.474087,13.5139632 57.4483478,12.9499251 C60.013913,11.0999358 62.2393043,8.78814466 64,6.15503959" id="icon-twitter" fill="#000000"></path>
    </g>
</svg>