<?xml version="1.0" encoding="UTF-8" standalone="no"?>
<svg width="70px" height="70px" viewBox="0 0 70 70" version="1.1" xmlns="http://www.w3.org/2000/svg" xmlns:xlink="http://www.w3.org/1999/xlink">
    <!-- Generator: Sketch 3.8.3 (29802) - http://www.bohemiancoding.com/sketch -->
    <title>icon-linkedin</title>
    <desc>Created with Sketch.</desc>
    <defs></defs>
    <g id="Page-1" stroke="none" stroke-width="1" fill="none" fill-rule="evenodd">
        <g id="icon-linkedin" fill="#000000">
            <path d="M7.32046738,23.936059 L19.5070945,23.936059 L19.5070945,63 L7.32046738,63 L7.32046738,23.936059 L7.32046738,23.936059 Z M19.9067287,13.0715364 C19.9067287,16.4256801 17.4215232,19.1424418 13.3320807,19.1424418 C9.48520552,19.1424418 7,16.4256801 7,13.0715364 C7,9.63598458 9.56563903,7 13.4929478,7 C17.4215232,7 19.8275618,9.63598458 19.9067287,13.0715364 L19.9067287,13.0715364 Z M26.799184,36.3976335 C26.799184,31.5251324 26.6395836,27.4515675 26.4799833,23.9358696 L37.0611068,23.9358696 L37.6241414,29.3681309 L37.8641753,29.3681309 C39.4671455,26.8110302 43.3957209,23.0561563 49.9703688,23.0561563 C57.98712,23.0561563 64,28.4095337 64,39.9120692 L64,62.9998107 L51.8133729,62.9998107 L51.8133729,41.3509117 C51.8133729,36.3174874 50.0495357,32.8838288 45.6396259,32.8838288 C42.2728184,32.8838288 40.2702139,35.1998603 39.3879786,37.4363767 C39.0662446,38.2346819 38.9858111,39.3535712 38.9858111,40.4724605 L38.9858111,62.9998107 L26.799184,62.9998107 L26.799184,36.3976335 L26.799184,36.3976335 Z"></path>
        </g>
    </g>
</svg>