<?xml version="1.0" encoding="UTF-8" standalone="no"?>
<svg width="60px" height="60px" viewBox="0 0 60 60" version="1.1" xmlns="http://www.w3.org/2000/svg" xmlns:xlink="http://www.w3.org/1999/xlink">
    <!-- Generator: Sketch 3.8.3 (29802) - http://www.bohemiancoding.com/sketch -->
    <title>icon-play</title>
    <desc>Created with Sketch.</desc>
    <defs></defs>
    <g id="Page-1" stroke="none" stroke-width="1" fill="none" fill-rule="evenodd">
        <path d="M0,30.001 C0,13.4304477 13.43,0 30,0 C46.57,0 60,13.4304477 60,30.001 C60,46.5715524 46.57,60 30,60 C13.43,60 0,46.5715524 0,30.001 Z M4,30.0010834 C4,44.3601817 15.6415,56 30,56 C44.3585,56 56,44.3601817 56,30.0010834 C56,15.6398183 44.3585,4 30,4 C15.6415,4 4,15.6398183 4,30.0010834 Z M24,19 L40,29.5 L24,40 L24,19 Z" id="icon-play" fill="#231F1F"></path>
    </g>
</svg>