<?xml version="1.0" encoding="UTF-8" standalone="no"?>
<svg width="60px" height="60px" viewBox="0 0 60 60" version="1.1" xmlns="http://www.w3.org/2000/svg" xmlns:xlink="http://www.w3.org/1999/xlink">
    <!-- Generator: Sketch 3.6.1 (26313) - http://www.bohemiancoding.com/sketch -->
    <title>icon-info</title>
    <desc>Created with Sketch.</desc>
    <defs></defs>
    <g id="Page-1" stroke="none" stroke-width="1" fill="none" fill-rule="evenodd">
        <path d="M30,60 C13.43,60 0,46.5715524 0,30.001 C0,13.4304477 13.43,0 30,0 C46.57,0 60,13.4304477 60,30.001 C60,46.5715524 46.57,60 30,60 Z M30,6 C16.746,6 6,16.7443581 6,30.0008 C6,43.2552418 16.746,53.9996 30,53.9996 C43.254,53.9996 54,43.2552418 54,30.0008 C54,16.7443581 43.254,6 30,6 Z M27,43.4826494 L33.8400002,43.4826494 L33.8400002,24 L27,24 L27,43.4826494 Z M27,22.0421681 L33.8400002,22.0421681 L33.8400002,17 L27,17 L27,22.0421681 Z" id="icon-info" fill="#231F1F"></path>
    </g>
</svg>