<?xml version="1.0" encoding="UTF-8" standalone="no"?>
<svg width="70px" height="70px" viewBox="0 0 70 70" version="1.1" xmlns="http://www.w3.org/2000/svg" xmlns:xlink="http://www.w3.org/1999/xlink">
    <!-- Generator: Sketch 3.6.1 (26313) - http://www.bohemiancoding.com/sketch -->
    <title>icon-share</title>
    <desc>Created with Sketch.</desc>
    <defs></defs>
    <g id="Page-1" stroke="none" stroke-width="1" fill="none" fill-rule="evenodd">
        <g id="icon-share" fill="#221F20">
            <path d="M47.5854024,47.2249113 C45.7893116,47.2249113 44.0918805,47.6403679 42.5796383,48.3777025 L33.8256164,39.6442401 C34.4693302,38.2187803 34.8316213,36.6384318 34.8316213,34.9725718 C34.8316213,33.3075186 34.4693302,31.7263633 33.8248077,30.3000968 L42.5432475,21.6037431 C44.0635765,22.3523717 45.7747552,22.7750887 47.5854024,22.7750887 C53.8907242,22.7750887 59,17.6766699 59,11.3867377 C59,5.09761213 53.8907242,0 47.5854024,0 C41.2800805,0 36.1708047,5.09761213 36.1708047,11.3867377 C36.1708047,12.9106163 36.4724445,14.3635044 37.0166899,15.6921588 L28.0976961,24.5877702 C26.6687486,23.9456276 25.0853421,23.5850274 23.4154063,23.5850274 C17.1108932,23.5850274 12,28.6834463 12,34.9725718 C12,41.2616973 17.1108932,46.3601162 23.4154063,46.3601162 C25.0861508,46.3601162 26.6695573,46.0003227 28.0976961,45.3573733 L37.0320549,54.2691191 C36.4781053,55.6082607 36.1708047,57.0748629 36.1708047,58.6132623 C36.1708047,64.9023879 41.2800805,70 47.5854024,70 C53.8907242,70 59,64.9023879 59,58.6132623 C59,52.3233301 53.8907242,47.2249113 47.5854024,47.2249113" id="Fill-1"></path>
        </g>
    </g>
</svg>