<?xml version="1.0" encoding="UTF-8" standalone="no"?>
<svg width="57px" height="56px" viewBox="0 0 57 56" version="1.1" xmlns="http://www.w3.org/2000/svg" xmlns:xlink="http://www.w3.org/1999/xlink">
    <!-- Generator: Sketch 3.6.1 (26313) - http://www.bohemiancoding.com/sketch -->
    <title>icon-linkedin</title>
    <desc>Created with Sketch.</desc>
    <defs></defs>
    <g id="Page-1" stroke="none" stroke-width="1" fill="none" fill-rule="evenodd">
        <path d="M0.320467379,16.936059 L12.5070945,16.936059 L12.5070945,56 L0.320467379,56 L0.320467379,16.936059 L0.320467379,16.936059 Z M12.9067287,6.07153643 C12.9067287,9.42568009 10.4215232,12.1424418 6.33208074,12.1424418 C2.48520552,12.1424418 0,9.42568009 0,6.07153643 C0,2.63598458 2.56563903,0 6.49294776,0 C10.4215232,0 12.8275618,2.63598458 12.9067287,6.07153643 L12.9067287,6.07153643 Z M19.799184,29.3976335 C19.799184,24.5251324 19.6395836,20.4515675 19.4799833,16.9358696 L30.0611068,16.9358696 L30.6241414,22.3681309 L30.8641753,22.3681309 C32.4671455,19.8110302 36.3957209,16.0561563 42.9703688,16.0561563 C50.98712,16.0561563 57,21.4095337 57,32.9120692 L57,55.9998107 L44.8133729,55.9998107 L44.8133729,34.3509117 C44.8133729,29.3174874 43.0495357,25.8838288 38.6396259,25.8838288 C35.2728184,25.8838288 33.2702139,28.1998603 32.3879786,30.4363767 C32.0662446,31.2346819 31.9858111,32.3535712 31.9858111,33.4724605 L31.9858111,55.9998107 L19.799184,55.9998107 L19.799184,29.3976335 L19.799184,29.3976335 Z" id="icon-linkedin" fill="#000000"></path>
    </g>
</svg>