<?xml version="1.0" encoding="UTF-8" standalone="no"?>
<svg width="70px" height="70px" viewBox="0 0 70 70" version="1.1" xmlns="http://www.w3.org/2000/svg" xmlns:xlink="http://www.w3.org/1999/xlink">
    <!-- Generator: Sketch 3.6.1 (26313) - http://www.bohemiancoding.com/sketch -->
    <title>icon-share</title>
    <desc>Created with Sketch.</desc>
    <defs></defs>
    <g id="Page-1" stroke="none" stroke-width="1" fill="none" fill-rule="evenodd">
        <g id="icon-share" fill="#221F20">
            <path d="M70,30.1228671 C69.3529268,30.6175971 68.6593673,31.0616393 68.0658365,31.6150163 C61.4099897,37.8177826 54.7711602,44.0385619 48.1248596,50.2518009 C47.2192062,51.0979945 46.2986108,51.9282695 44.9675245,53.1489666 L44.9675245,41.4681443 C32.2381552,39.3338096 20.2982234,39.6107076 9.8844546,48.0961019 C5.51971993,51.6526283 2.7450669,56.3624075 0.742003993,61.5778084 C0.551908093,62.0729573 0.373018721,62.5727141 0.00195816577,63 C-0.0881091054,50.5626304 2.91482503,39.2072995 11.9182317,30.1739739 C20.9365804,21.1255676 32.4676814,18.7922517 44.883268,18.4851924 L44.883268,7 C53.5463283,14.8310605 61.7731641,22.26751 70,29.7039594 L70,30.1228671 Z" id="Fill-1"></path>
        </g>
    </g>
</svg>