<?xml version="1.0" encoding="UTF-8" standalone="no"?>
<svg width="70px" height="70px" viewBox="0 0 70 70" version="1.1" xmlns="http://www.w3.org/2000/svg" xmlns:xlink="http://www.w3.org/1999/xlink">
    <!-- Generator: Sketch 3.6.1 (26313) - http://www.bohemiancoding.com/sketch -->
    <title>icon-stat-up</title>
    <desc>Created with Sketch.</desc>
    <defs></defs>
    <g id="Page-1" stroke="none" stroke-width="1" fill="none" fill-rule="evenodd">
        <g id="icon-stat-up" fill="#000000">
            <path d="M35,70 C54.3299662,70 70,54.3299662 70,35 C70,15.6700338 54.3299662,0 35,0 C15.6700338,0 0,15.6700338 0,35 C0,54.3299662 15.6700338,70 35,70 Z M35,64 C51.0162577,64 64,51.0162577 64,35 C64,18.9837423 51.0162577,6 35,6 C18.9837423,6 6,18.9837423 6,35 C6,51.0162577 18.9837423,64 35,64 Z M30.4179481,29.8043517 L22.0911688,38.1536687 L17,33.0487198 L35,15 L53,33.0487198 L47.9088312,38.1536687 L39.5820519,29.8043517 L39.5820519,55 L30.4179481,55 L30.4179481,29.8043517 L30.4179481,29.8043517 Z" id="Combined-Shape"></path>
        </g>
    </g>
</svg>