<?xml version="1.0" encoding="UTF-8" standalone="no"?>
<svg width="102px" height="113px" viewBox="0 0 102 113" version="1.1" xmlns="http://www.w3.org/2000/svg" xmlns:xlink="http://www.w3.org/1999/xlink">
    <!-- Generator: Sketch 3.8.3 (29802) - http://www.bohemiancoding.com/sketch -->
    <title>logo-unilever</title>
    <desc>Created with Sketch.</desc>
    <defs></defs>
    <g id="Page-1" stroke="none" stroke-width="1" fill="none" fill-rule="evenodd">
        <path d="M34.5461,43.6022 C34.5461,41.6162 39.2681,40.5592 39.2681,38.1062 C39.2681,37.7032 39.1121,36.9902 38.8321,36.4602 C40.4781,37.3612 41.6901,38.8842 41.6901,40.1252 C41.6901,42.2692 39.4541,43.2612 39.4541,44.5972 C39.4541,46.1502 41.8461,46.3992 41.8461,48.3242 C41.8461,49.9082 39.5781,51.7402 39.5781,53.7912 C39.5781,55.3742 40.6941,56.6772 42.4041,56.8962 C41.8461,57.0212 41.3471,57.1142 40.8191,57.1142 C37.6831,57.1142 34.4531,54.5352 34.4531,51.4602 C34.4531,49.9392 35.1061,48.6032 36.1001,47.6402 C36.9681,48.3852 37.8391,48.8832 38.3971,48.8832 C38.8951,48.8832 39.1121,48.6342 39.1121,48.2622 C39.1121,47.1122 34.5461,46.0572 34.5461,43.6022 L34.5461,43.6022 L34.5461,43.6022 Z M44.4531,59.2902 C43.3671,59.7232 42.9641,59.6922 42.9641,60.7772 C42.9641,61.1812 42.8701,61.7102 42.8701,61.9892 C42.8701,62.3622 42.9331,62.5802 43.3671,62.5802 C44.4841,62.5802 46.2541,60.6852 46.2541,59.0712 C46.2541,58.6352 46.0071,58.4502 45.7281,58.4502 C45.4791,58.4502 45.1991,58.9472 44.4531,59.2902 L44.4531,59.2902 L44.4531,59.2902 Z M44.3291,57.0512 C44.3291,55.6542 41.4421,55.6232 41.4421,53.5112 C41.4421,52.9832 41.7821,52.0822 42.4671,51.1182 C42.7451,52.7342 43.4001,53.5732 44.7951,54.1012 C47.5581,55.1252 47.9331,56.6772 47.9331,58.3262 C47.9331,61.1182 45.9761,64.5992 40.9441,64.5992 C36.9061,64.5992 34.0181,60.9952 34.0181,57.9532 C34.0181,57.1142 34.2351,56.1822 34.7641,56.1822 C35.2291,56.1822 35.3851,56.5542 35.7581,56.9272 C37.1541,58.3262 38.6771,58.6982 40.8811,58.6982 C42.8701,58.6982 44.3291,57.8912 44.3291,57.0512 L44.3291,57.0512 L44.3291,57.0512 Z M28.7381,60.8382 C31.2241,61.4602 32.4651,62.7962 32.7141,64.3802 C32.9621,65.9032 33.2721,67.1472 33.8631,67.7672 C34.6401,68.6342 36.1621,69.4112 37.4971,69.4112 C38.6151,69.4112 39.5171,69.0402 39.5171,68.0162 C39.5171,66.8972 37.9941,64.3802 35.7581,64.3802 C35.5411,64.3802 35.2601,64.4122 34.9511,64.4122 C34.6711,64.4122 34.2661,64.3502 34.0181,64.1322 C33.5201,63.6982 33.3661,61.3682 32.4341,59.9722 C31.4101,58.4182 30.2921,57.9842 28.7701,57.9842 C27.6831,57.9842 26.4721,58.5742 26.4721,59.4442 C26.4721,59.9722 26.7511,60.3422 28.7381,60.8382 L28.7381,60.8382 L28.7381,60.8382 Z M37.4031,67.7992 C36.4721,67.7992 35.0751,66.8042 35.0751,66.2462 C35.0751,65.7792 35.5101,65.5302 35.8511,65.5302 C36.6271,65.5302 38.0251,66.4942 38.0251,67.3022 C38.0251,67.5182 37.8691,67.7992 37.4031,67.7992 L37.4031,67.7992 L37.4031,67.7992 Z M45.7581,66.6192 C45.7581,66.8972 45.6641,67.2092 45.4161,67.5182 C45.0751,66.8972 44.1111,66.5862 43.6791,66.5862 C40.4781,66.5862 41.6901,71.2132 38.2731,71.2132 C36.8431,71.2132 36.7191,71.0282 36.1941,71.0282 C35.9751,71.0282 35.8511,71.1212 35.8511,71.3062 C35.8511,72.1142 37.0001,74.1042 40.1971,74.1042 C43.4001,74.1042 46.4721,72.1462 46.4721,69.7212 C46.4721,69.3192 46.3781,68.8832 46.1921,68.4482 C46.3171,68.2612 46.6271,68.1372 46.9051,68.1372 C47.4021,68.1372 47.6841,68.6982 48.1491,68.6982 C48.6451,68.6982 49.0181,68.3242 49.0181,67.8302 C49.0181,67.4252 48.8001,67.1472 48.4261,66.9592 C48.6771,66.7742 48.8621,66.4622 48.8621,66.1222 C48.8621,65.5922 48.4881,65.0962 47.8691,65.0962 C47.5881,65.0962 47.4021,65.1902 47.1861,65.4072 C47.1231,64.8472 46.8141,64.3192 46.2231,64.3192 C45.7581,64.3192 45.4161,64.6612 45.4161,65.1902 C45.4161,65.6862 45.7581,66.0892 45.7581,66.6192 L45.7581,66.6192 L45.7581,66.6192 Z M66.7831,12.8882 C64.6081,12.8882 63.1811,11.8002 63.1811,11.2422 C63.1811,10.9622 63.3681,10.7772 63.6141,10.7772 C64.2991,10.7772 65.7891,11.8312 66.2871,11.8312 C66.4101,11.8312 66.5041,11.7692 66.5041,11.5842 C66.5041,11.0252 65.9751,10.0922 65.9751,9.6262 C65.9751,9.5032 66.0691,9.4102 66.2561,9.4102 C67.0941,9.4102 68.3371,9.7512 68.9891,9.7512 C69.2071,9.7512 69.2701,9.6262 69.2701,9.5032 C69.2701,8.8182 67.2501,7.4842 67.2501,7.0802 C67.2501,6.7082 69.7641,6.1492 69.7641,5.5582 C69.7641,4.9372 66.3491,5.3722 66.3491,4.7812 C66.3491,4.3462 67.0001,3.6012 67.0001,3.2612 C67.0001,3.1052 66.8771,3.0432 66.6591,3.0432 C66.3791,3.0432 64.8881,3.6332 64.2671,3.6332 C63.9561,3.6332 63.5831,3.5722 63.5831,3.1362 C63.5831,2.4222 64.7951,1.6442 66.6921,1.6442 C69.7641,1.6442 71.5971,3.7572 71.5971,7.2982 C71.5971,11.7692 68.4611,12.8882 66.7831,12.8882 L66.7831,12.8882 L66.7831,12.8882 Z M60.7271,6.9882 C60.7271,6.6462 59.5171,5.9932 59.5171,5.6212 C59.5171,5.5582 59.5781,5.5272 59.6711,5.5272 C60.0111,5.5272 60.6021,5.6512 61.0691,5.6512 C61.4711,5.6512 61.5341,3.9142 61.8461,3.9142 C62.0631,3.9142 62.4361,5.5582 62.7781,5.5582 C63.1811,5.5582 63.9241,5.0922 64.2361,5.0922 C64.2991,5.0922 64.3601,5.1232 64.3601,5.1852 C64.3601,5.4042 63.5831,6.2422 63.5831,6.4902 C63.5831,6.7702 65.3241,7.1112 65.3241,7.3612 C65.3241,7.6712 63.5521,7.6402 63.5521,7.9182 C63.5521,8.1352 64.2051,9.0052 64.2051,9.2852 C64.2051,9.3472 64.1741,9.3782 64.1111,9.3782 C63.8631,9.3782 62.9011,8.9432 62.6221,8.9432 C62.2801,8.9432 61.7211,10.2182 61.4421,10.2182 C61.3481,10.2182 61.2861,10.0922 61.2861,9.9372 L61.2231,8.6952 C61.2231,8.5702 61.1621,8.4472 61.0061,8.4472 C60.6331,8.4472 59.9191,8.4162 59.7011,8.4162 C59.5481,8.4162 59.4851,8.3842 59.4851,8.3222 C59.4851,8.0742 60.7271,7.2052 60.7271,6.9882 L60.7271,6.9882 L60.7271,6.9882 Z M82.9661,30.6852 C82.9661,30.0332 81.3191,29.9702 81.1631,28.1372 C81.1321,27.8582 81.0391,27.3612 80.6961,27.3612 C80.1391,27.3612 80.5721,29.0692 79.9511,29.0692 C78.5211,29.0692 78.0561,26.2752 77.5271,26.2752 C77.4031,26.2752 77.2481,26.3692 77.2481,26.7412 C77.2481,27.0832 77.3111,27.3002 77.3111,27.7032 C77.3111,28.1052 77.2161,28.3862 76.8481,28.3862 C76.0081,28.3862 75.2631,26.4292 74.5481,26.4292 C74.3931,26.4292 74.2381,26.5232 74.2381,26.6772 C74.2381,27.0512 74.8601,27.7332 74.8601,28.0742 C74.8601,28.8212 72.8381,28.4162 72.8381,29.0382 C72.8381,29.3182 73.1181,29.4122 73.4921,29.4122 C74.1451,29.4122 75.1691,29.1312 75.6961,29.1312 C76.0081,29.1312 76.4761,29.1952 76.4761,29.5972 C76.4761,30.0332 75.3561,30.5912 75.3561,30.9962 C75.3561,31.1832 75.5431,31.2742 75.6961,31.2742 C76.5361,31.2742 78.0251,29.8162 79.0801,29.8162 C79.2691,29.8162 79.7351,29.9082 79.7351,30.1892 C79.7351,30.5912 78.6771,31.3052 78.6771,31.8952 C78.6771,32.0512 78.7721,32.2382 78.9571,32.2382 C79.5171,32.2382 80.2621,30.7782 81.3191,30.7782 C81.7231,30.7782 82.3141,30.9342 82.6231,30.9342 C82.8721,30.9342 82.9661,30.7782 82.9661,30.6852 L82.9661,30.6852 L82.9661,30.6852 Z M85.9121,5.7122 C85.9121,8.4782 83.8981,10.5892 80.2621,11.1802 C80.6651,11.2112 81.0391,11.2112 81.4121,11.2112 C85.6651,11.2112 87.2191,9.2852 87.2191,7.6712 C87.2191,6.7702 86.7211,5.9622 85.9121,5.7122 L85.9121,5.7122 L85.9121,5.7122 Z M80.6651,8.8492 C80.6651,6.6462 75.3871,6.0862 75.3871,5.5892 C75.3871,5.1852 78.3361,4.5012 79.8601,4.4702 C77.5271,1.4902 74.2071,1.8002 74.2071,1.2732 C74.2071,0.9612 76.6921,0.3392 78.9891,0.3392 C80.9141,0.3392 82.7181,0.7752 82.7181,2.2362 C82.7181,3.0432 82.0641,3.8822 82.0641,5.1232 C82.0641,5.8062 82.4061,6.3972 83.3071,6.3972 C84.2711,6.3972 84.4881,5.3722 84.4881,4.2842 C84.4881,3.3852 84.3321,2.7012 84.3321,2.2672 C84.3321,0.9612 85.2311,0.0922 86.5051,0.0922 C87.5611,0.0922 87.8091,0.5572 89.3621,0.5572 C88.5241,1.0542 88.2131,1.9572 88.2131,2.3902 C88.2131,3.6962 89.0531,4.5952 89.0531,7.2672 C89.0531,12.1732 84.4571,13.9142 78.8331,13.9142 C77.2791,13.9142 75.6361,13.7892 74.0211,13.5402 C73.7711,13.5082 73.7091,13.4472 73.7091,13.2932 C73.7091,12.8882 75.9151,12.6702 75.9151,10.6832 C75.9151,9.9062 75.6661,9.1602 75.6661,8.8812 C75.6661,8.7262 75.7911,8.6322 75.9151,8.6322 C76.3821,8.6322 77.3111,10.4352 79.0501,10.4352 C79.5171,10.4352 80.6651,10.2802 80.6651,8.8492 L80.6651,8.8492 L80.6651,8.8492 Z M35.8511,11.3982 C35.8511,12.4842 39.7331,17.7952 40.4781,17.7952 C41.0991,17.7952 41.5651,16.7092 41.5651,15.7752 C41.5651,15.5292 41.5031,15.2812 41.3791,15.0932 C40.8191,14.3182 36.8751,11.2112 36.0071,11.2112 C35.9131,11.2112 35.8511,11.3042 35.8511,11.3982 L35.8511,11.3982 L35.8511,11.3982 Z M57.4351,20.4352 C58.2431,21.2112 58.9561,21.5532 59.8251,21.5532 C60.1661,21.5532 60.5711,21.4602 60.7891,21.4602 C61.0691,21.4602 61.2551,21.5842 61.2551,21.8022 C61.2551,22.1442 60.9441,22.7032 60.5711,23.0132 C60.9441,23.1692 61.3481,23.2312 61.7821,23.2312 C63.5521,23.2312 65.5711,22.1132 65.5711,19.3182 C65.9441,19.8132 66.1621,20.8392 66.1621,21.3042 C66.1621,24.6892 63.6761,25.9952 61.3801,25.9952 C59.8881,25.9952 59.1431,25.4982 58.9561,25.4982 C58.3671,25.4982 58.3991,26.6772 57.9941,26.6472 C57.2781,26.5232 56.6271,24.9382 56.6271,23.2612 C56.6271,22.2672 56.8751,21.2112 57.4351,20.4352 L57.4351,20.4352 L57.4351,20.4352 Z M62.1251,18.1682 C61.8761,17.7632 60.9441,17.5462 60.5091,17.5462 C59.1431,17.5462 58.2121,18.5102 58.0251,19.3792 C57.9011,19.0692 57.8071,18.6972 57.8071,18.3242 C57.8071,16.9572 58.7381,15.2812 61.0061,15.2812 C62.9951,15.2812 63.7711,16.3352 64.0501,16.3352 C64.3601,16.3352 64.6711,16.0252 64.9191,16.0252 C65.2611,16.0252 65.2611,16.5532 65.2611,16.9252 C65.2611,18.1682 64.7021,20.3102 63.3051,21.0872 C63.0561,20.5582 62.5601,19.9702 61.7521,19.5962 C61.5341,19.5052 61.4421,19.3182 61.4421,19.1312 C61.4421,18.7902 61.7521,18.3552 62.1251,18.1682 L62.1251,18.1682 L62.1251,18.1682 Z M85.1691,49.9392 C86.7211,49.9392 87.9641,51.9582 87.9641,54.3192 C87.9641,56.8342 86.7831,59.5682 84.6751,61.4292 C84.6441,57.2382 79.5171,58.5742 79.5171,55.5282 C79.5171,54.2252 80.4481,53.3552 81.5671,53.3552 C82.5621,53.3552 83.3391,53.6342 83.8981,54.1952 C83.3391,53.6682 83.0581,52.9212 83.0581,52.2072 C83.0581,51.0262 83.8051,49.9392 85.1691,49.9392 L85.1691,49.9392 L85.1691,49.9392 Z M13.0221,8.1982 C13.0221,8.8182 10.6621,10.9012 9.8241,10.9012 C9.5131,10.9012 9.4201,10.5272 9.4201,10.1872 C9.4201,9.5652 9.6991,8.6952 10.0411,8.4162 C10.4441,8.0432 11.3771,7.8582 12.0911,7.8582 C12.5261,7.8582 13.0221,7.9492 13.0221,8.1982 L13.0221,8.1982 L13.0221,8.1982 Z M32.8381,27.5462 C31.5031,27.5462 31.4411,29.1642 31.4411,32.4232 C30.4471,30.2812 28.8001,27.9822 26.8751,27.9822 C25.5701,27.9822 25.0731,28.8512 25.0731,30.3742 C25.0731,30.6852 25.1041,31.1522 25.1661,31.4292 C25.3221,30.9032 25.8191,30.6852 26.4411,30.6852 C27.7771,30.6852 29.3901,31.7092 30.4471,33.1072 C29.2351,32.8902 28.0551,32.6712 27.0621,32.6712 C26.4411,32.6712 25.8811,32.7342 25.4151,32.9522 C24.5151,33.3552 23.3021,34.6912 23.3021,36.7102 C23.3021,37.0212 23.3341,37.3612 23.3981,37.7342 C24.4841,35.3112 27.3721,34.2262 29.2351,34.2262 C29.6071,34.2262 29.8871,34.2562 30.1051,34.2892 C29.1411,35.1562 28.9241,36.6782 28.8621,37.7032 C28.8311,38.1992 28.6441,38.2312 28.3051,38.2312 C28.3051,39.2532 29.1101,40.7772 29.1101,41.5542 C29.1101,41.8342 28.9551,42.0822 28.8001,42.1442 C28.8001,43.5092 30.1661,44.5032 30.1661,45.3732 C30.1661,45.5902 30.1051,45.7772 30.0111,45.8712 C30.1051,46.4292 31.5961,47.3922 31.7821,47.7952 C32.0931,48.4492 32.3111,48.5092 32.4651,48.5092 C32.9921,48.5092 33.8311,47.8882 33.8311,47.3302 C33.8311,47.1432 33.6761,46.9262 33.5531,46.8332 C32.9621,46.3992 32.6511,45.4662 32.4041,44.8452 C32.1861,44.8452 31.9071,44.7212 31.8151,44.4102 C31.6891,44.0062 31.6271,42.5472 31.3791,41.8342 C30.9741,41.7402 30.7891,41.5852 30.7891,40.7462 C30.7891,40.3412 31.0371,38.7572 31.0371,38.1992 C30.8501,38.1992 30.6021,38.0752 30.6021,37.7032 C30.6021,36.7102 31.5961,35.9332 31.8761,34.6602 C33.6461,35.9642 34.0801,37.2982 34.0801,38.4792 C34.0801,39.0992 33.9861,39.6892 33.8631,40.2492 C35.1691,39.5972 37.1241,38.6342 37.1241,36.6782 C37.1241,35.5292 36.5961,34.2562 33.0861,33.7592 C34.1731,33.3552 35.5411,33.1382 36.6901,33.1382 C38.6771,33.1382 39.8261,33.7592 40.0751,35.1562 C40.4781,34.5372 40.7881,33.8222 40.7881,33.1692 C40.7881,31.6462 39.5171,30.6552 37.9011,30.6552 C36.0071,30.6552 34.3291,31.6462 32.5261,32.8592 C33.3351,31.1832 33.8941,30.1892 34.8881,30.1892 C35.0431,30.1892 35.1991,30.2182 35.3531,30.2502 C34.9811,28.8822 33.5841,27.5462 32.8381,27.5462 L32.8381,27.5462 L32.8381,27.5462 Z M29.4521,25.1872 C30.5091,25.1872 31.7201,19.4732 31.7201,18.5102 C31.7201,18.2612 31.6271,18.0762 31.4101,18.0762 C30.4471,18.0762 29.1101,23.5092 29.1101,24.7202 C29.1101,24.9382 29.1731,25.1872 29.4521,25.1872 L29.4521,25.1872 L29.4521,25.1872 Z M37.0621,26.8952 C37.8391,26.8952 38.7081,23.9142 38.7081,22.0502 C38.7081,21.6462 38.6461,21.2112 38.4601,21.2112 C37.8081,21.2112 36.7191,24.2852 36.7191,25.9642 C36.7191,26.6162 36.8751,26.8952 37.0621,26.8952 L37.0621,26.8952 L37.0621,26.8952 Z M31.9991,24.1302 C32.3421,24.1302 32.7761,23.7572 33.5841,22.8592 C33.6461,22.4552 33.6461,22.0822 33.6461,21.6162 C33.6461,20.9942 33.3971,20.3102 33.0231,20.3102 C32.0931,20.3102 31.6271,22.7962 31.6271,23.4472 C31.6271,23.8202 31.8151,24.1302 31.9991,24.1302 L31.9991,24.1302 L31.9991,24.1302 Z M36.2561,22.8592 C36.2561,22.3302 36.1311,22.2072 36.0071,22.2072 C35.6961,22.2072 35.3531,22.5792 34.8581,23.4162 C34.9201,24.5352 35.1061,25.0332 35.4161,25.0332 C35.7581,25.0332 36.2561,23.9452 36.2561,22.8592 L36.2561,22.8592 L36.2561,22.8592 Z M58.7381,54.6602 C60.1661,54.8452 60.5091,55.3422 60.5091,55.7462 C60.5091,56.4312 59.8881,56.6472 59.2981,56.6472 C58.8641,56.6472 58.3671,56.5542 57.8381,56.5542 C57.1541,56.5542 56.4721,56.7102 55.9121,57.3632 C56.3151,57.4242 56.9061,57.7042 56.9061,58.3262 C56.9061,60.1262 51.9051,58.6352 51.9051,63.2622 C51.9051,65.7182 54.4541,68.3852 58.3041,68.3852 C60.2921,68.3852 61.5651,67.7372 61.5651,66.9912 C61.5651,66.4012 60.5091,66.8042 60.5091,66.3082 C60.5091,66.0892 60.8821,65.6862 60.8821,65.3442 C60.8821,65.1902 60.7581,64.9102 60.5091,64.9102 C59.9491,64.9102 58.8951,65.8102 56.7511,65.8102 C55.0751,65.8102 53.4281,64.8472 53.4281,63.5432 C53.4281,63.2622 53.5521,63.1062 53.7381,63.1062 C53.9251,63.1062 54.1731,63.2322 54.3911,63.2322 C54.5781,63.2322 54.6081,63.1062 54.6081,62.7652 C54.6081,62.4232 54.6081,61.4602 55.1991,61.4602 C55.7871,61.4602 56.9061,63.6352 61.1921,63.6352 C62.6221,63.6352 65.3861,63.3562 66.4101,62.4232 C66.3791,65.8412 63.7081,70.3432 58.1181,70.3432 C52.3101,70.3432 49.2051,65.6862 49.2051,61.3982 C49.2051,56.6472 53.0861,52.3312 58.3991,52.3312 C59.7631,52.3312 60.9131,52.7962 60.9131,53.3862 C60.9131,54.1952 58.8951,53.6972 58.7381,54.6602 L58.7381,54.6602 L58.7381,54.6602 Z M68.2741,56.3052 C68.4911,56.6472 68.5851,56.9892 68.5851,57.3002 C68.5851,58.1702 67.9951,58.9782 67.9951,59.8782 C67.9951,60.9012 68.7731,61.7412 69.9491,61.7412 C71.2241,61.7412 72.0941,60.7152 72.0941,59.5052 C72.0941,57.8602 70.6031,56.4612 68.2741,56.3052 L68.2741,56.3052 L68.2741,56.3052 Z M57.9941,58.2942 C58.3041,58.6052 58.3991,58.9162 58.3991,59.2262 C58.3991,59.6922 58.1811,60.1892 58.1811,60.7152 C58.1811,61.4602 58.7381,62.1122 59.5481,62.1122 C60.4161,62.1122 61.0061,61.4292 61.0061,60.6222 C61.0061,59.4442 59.7941,58.2942 57.9941,58.2942 L57.9941,58.2942 L57.9941,58.2942 Z M62.1251,53.0142 C65.3861,53.6342 67.1571,56.0882 67.1571,58.3872 C67.1571,59.9722 66.1621,61.4292 64.4221,61.4292 C62.8391,61.4292 61.6891,60.3422 61.6891,58.6052 C61.6891,57.3002 62.7151,55.9332 62.7151,54.5962 C62.7151,54.0702 62.5601,53.5422 62.1251,53.0142 L62.1251,53.0142 L62.1251,53.0142 Z M63.7391,57.1452 C63.7391,57.5802 64.0501,57.9212 64.4831,57.9212 C64.9811,57.9212 65.2931,57.4872 65.2931,56.9892 C65.2931,56.3372 64.7021,55.4362 64.1421,55.4362 C63.8951,55.4362 63.9881,55.8082 63.9241,56.2122 C63.8951,56.5232 63.7391,56.8962 63.7391,57.1452 L63.7391,57.1452 L63.7391,57.1452 Z M57.8381,36.9592 C58.1811,39.5972 61.7211,38.2612 61.7211,41.4602 C61.7211,41.9262 61.5961,42.6102 61.5961,43.1992 C61.5961,43.8822 61.6571,44.4722 62.1861,44.4722 C62.7151,44.4722 62.8391,44.1002 62.8391,43.6022 C62.8391,43.1042 62.7151,42.4862 62.7151,42.1442 C62.7151,41.0562 63.4911,40.8072 63.9561,40.8072 C65.1371,40.8072 66.0371,42.0192 67.8091,42.0192 C67.4041,44.0062 63.3051,43.4782 63.3051,45.6542 C63.3051,46.7402 64.3911,46.9882 65.1071,46.9882 C65.7581,46.9882 65.9751,46.8942 65.9751,46.3362 C65.9751,46.0252 65.9131,45.6852 65.9131,45.4662 C65.9131,45.3412 66.0071,45.2182 66.1621,45.2182 C66.8461,45.2182 70.1991,47.7642 70.1991,48.5422 C70.1991,49.2552 66.6591,49.9702 65.6341,49.9702 C65.3241,49.9702 65.2611,49.7532 65.2611,49.6292 C65.2611,49.4122 65.7891,48.7582 65.7891,48.3852 C65.7891,48.1072 65.3241,47.9192 64.0811,47.9192 C63.4911,47.9192 63.0561,47.9822 63.0561,48.4492 C63.0561,49.2872 64.4221,50.3122 64.4221,51.0882 C64.4221,51.7092 64.0501,52.0822 63.0561,52.0822 C62.2181,52.0822 60.9441,51.4292 60.9441,50.3432 C60.9441,49.4732 61.8461,48.6032 61.8461,48.0762 C61.8461,47.9192 61.7211,47.6712 61.3481,47.6712 C60.1971,47.6712 59.8881,50.7142 55.8191,51.0572 C56.4721,50.4682 57.0311,49.8142 57.0311,48.4792 C57.0311,47.8272 56.8751,47.2982 56.8751,46.5852 C56.8751,45.6542 57.3101,45.1872 57.9321,45.1872 C59.0811,45.1872 59.6391,46.8002 60.3851,46.8002 C60.7891,46.8002 61.2231,46.4292 61.2231,45.8712 C61.2231,43.5092 56.6901,43.8512 56.6901,40.5292 C56.6901,39.6272 56.9991,38.5102 57.8381,36.9592 L57.8381,36.9592 L57.8381,36.9592 Z M72.6521,46.0572 C72.6521,46.8332 72.9021,47.7332 73.6781,47.7332 C74.3301,47.7332 74.8911,46.7402 74.8911,45.6542 C74.8911,44.4102 74.6721,43.4472 74.6721,42.9502 C74.6721,42.7342 74.7661,42.6402 74.8911,42.6402 C75.3561,42.6712 75.7911,43.9452 76.2881,43.9452 C76.8481,43.9452 77.6851,42.9192 78.0251,42.9192 C78.1171,42.9192 78.1501,43.0432 78.1501,43.0752 C78.1501,43.5412 77.4351,44.5662 77.4351,44.9692 C77.4351,45.3112 79.2361,45.3732 79.2361,45.6852 C79.2361,46.1502 77.3411,46.1502 76.4441,46.5542 C75.5731,46.9262 75.0451,47.3922 75.0451,48.0132 C75.0451,48.6342 75.6661,48.7582 76.5361,48.7582 C78.6151,48.7582 80.0761,47.6402 80.5411,47.6402 C80.6341,47.6402 80.6961,47.7032 80.6961,47.7952 C80.6961,48.1072 79.6411,49.1322 79.6411,49.5982 C79.6411,50.1262 81.5671,50.7462 81.5361,51.0572 C81.5051,51.1502 81.3821,51.1802 81.1631,51.1802 C80.8221,51.1802 80.2941,51.0882 79.8901,51.0882 C79.6411,51.0882 79.4231,51.1182 79.3301,51.2422 C79.1111,51.4922 79.3931,53.1382 78.9571,53.1382 C78.5541,53.1382 77.4961,49.4732 75.1081,49.4732 C74.7661,49.4732 74.5171,49.7532 74.5171,50.2192 C74.5171,51.4602 75.7291,52.8892 76.8781,53.5732 C77.4031,53.9162 78.2751,54.2562 78.2751,54.4432 C78.2751,54.8142 76.2881,54.4742 76.2881,55.0932 C76.2881,55.6542 76.5361,56.4932 76.5361,56.9892 C76.5361,57.1452 76.5061,57.3312 76.3191,57.3312 C75.9471,57.3312 75.0451,55.6232 74.6101,55.6232 C74.2381,55.6232 73.4311,56.6472 73.0881,56.6472 C72.9951,56.6472 72.9331,56.5542 72.9331,56.4612 C72.9331,55.7462 74.0821,54.1322 74.0821,52.5482 C74.0821,51.8022 73.9891,50.1882 73.0881,50.1882 C72.3421,50.1882 71.5041,51.3672 71.1301,52.5482 C70.9121,53.2322 71.0691,55.8712 70.5711,55.8712 C70.1061,55.8712 70.2291,54.1012 69.6081,54.1012 C69.1461,54.1012 68.1521,54.9392 67.8091,54.9392 C67.7471,54.9392 67.6861,54.9082 67.6861,54.8452 C67.6861,54.4742 68.5851,53.2632 68.5851,53.0142 C68.5851,52.5482 66.5341,52.4862 66.5341,52.1132 C66.5341,51.8942 67.3421,51.7402 68.0881,51.6162 C69.6711,51.3352 72.0011,50.1882 72.0011,48.5722 C72.0011,46.7712 70.2601,45.9962 69.1141,45.2502 C68.5241,44.8762 67.8711,44.5662 67.8711,44.3172 C67.8711,44.0682 68.6171,44.0682 68.9271,44.0682 C69.3911,44.0682 69.8571,44.0372 69.8571,43.6642 C69.8571,43.3842 69.7931,42.8282 69.7931,42.3922 C69.7931,42.0822 69.8241,41.8342 69.9491,41.8342 C70.4151,41.8342 71.0691,43.3542 71.3791,43.3542 C71.8751,43.3542 72.5601,42.1132 73.0271,42.1132 C73.1811,42.1132 73.2421,42.2062 73.2421,42.4862 C73.2421,43.6332 72.6521,44.9392 72.6521,46.0572 L72.6521,46.0572 L72.6521,46.0572 Z M71.5661,72.1772 C70.7571,72.7972 68.8651,74.1972 65.7281,74.1972 C64.0501,74.1972 63.3051,73.6682 63.0561,73.6682 C62.7461,73.6682 62.4041,73.9792 62.0631,74.3822 C61.3171,75.2512 60.3541,76.8662 60.3541,78.6352 C60.3541,79.8782 61.3171,81.1232 63.1181,81.1232 C68.9271,81.1232 73.2741,77.4872 73.2741,74.5392 C73.2741,72.8602 72.2791,72.1772 71.5661,72.1772 L71.5661,72.1772 L71.5661,72.1772 Z M69.9491,71.8352 C70.1991,71.6172 70.2601,71.2772 70.2601,70.9342 L70.2601,70.2192 C70.2601,69.3192 68.8961,68.7902 67.0321,68.7902 C64.7651,68.7902 63.5521,69.8152 63.5521,70.2512 L63.5521,71.6792 C63.5521,72.2702 64.9191,72.8602 66.5981,72.8602 C67.9331,72.8602 69.1461,72.5182 69.9491,71.8352 L69.9491,71.8352 L69.9491,71.8352 Z M69.7011,74.9122 C69.8571,74.9122 70.0431,75.0042 70.0431,75.5632 C70.0431,76.2452 69.7331,77.1452 68.6171,77.8602 C67.8401,78.3872 66.7831,78.8222 65.2301,78.8542 C65.4781,78.1082 65.6651,77.3332 65.6651,76.5862 C65.6651,76.3372 65.6341,76.1502 65.6031,75.8752 L66.0071,75.8752 C68.4611,75.8752 69.5161,74.9122 69.7011,74.9122 L69.7011,74.9122 L69.7011,74.9122 Z M68.8961,39.1922 C68.8961,38.5722 69.4521,38.0432 70.0741,38.0432 C70.7571,38.0432 71.2861,38.5722 71.2861,39.1922 C71.2861,39.9062 70.7571,40.4042 70.0741,40.4042 C69.4521,40.4042 68.8961,39.9062 68.8961,39.1922 L68.8961,39.1922 L68.8961,39.1922 Z M13.6441,21.1192 C13.6441,21.1192 12.7451,21.8022 11.6251,21.8022 C10.2901,21.8022 9.2331,20.8072 9.2331,19.4112 C9.2331,18.4482 9.7291,17.4552 10.8801,16.9572 C10.8491,17.1422 10.8491,17.2982 10.8491,17.4852 C10.8491,19.2552 11.8441,20.5892 13.6441,21.1192 L13.6441,21.1192 L13.6441,21.1192 Z M20.2911,27.0832 C19.6081,27.8882 18.8931,29.2552 18.8931,30.6552 C18.8931,32.3302 19.9181,33.7282 21.5021,33.7282 C23.0241,33.7282 23.7381,32.4232 23.7381,31.0892 C23.7381,29.0072 21.8431,27.5462 20.2911,27.0832 L20.2911,27.0832 L20.2911,27.0832 Z M16.9981,22.0822 C16.8131,22.0502 16.5641,22.0502 16.3161,22.0502 C15.2911,22.0502 13.9231,22.2362 12.7131,23.0442 C9.9791,24.8152 10.4131,27.6092 9.9791,28.3242 C9.9171,28.4162 9.8851,28.5422 9.8851,28.6672 C9.8851,28.9452 10.1961,29.2552 10.4751,29.2552 C10.7251,29.2552 10.8801,29.1952 11.0041,29.1952 C11.7501,29.1952 12.5881,29.7222 13.7991,29.7222 C14.5141,29.7222 15.3531,29.5032 16.4081,28.9762 C18.6451,27.8582 19.5151,25.0932 19.5151,24.6272 C19.5151,24.0382 19.0491,24.1302 18.6451,23.5722 C18.2101,22.9202 18.4271,22.6722 18.1481,22.2982 C17.9601,22.1442 17.5571,22.1442 16.9981,22.0822 L16.9981,22.0822 L16.9981,22.0822 Z M18.0861,25.3432 C18.0861,25.7772 17.8371,26.3372 17.3401,26.3372 C16.2541,26.3372 15.3841,24.6892 15.3841,23.7572 C15.3841,23.1692 15.7261,23.1072 16.1921,23.1072 C16.4081,23.1072 16.5021,23.1382 16.6581,23.2312 C16.9361,23.3862 16.9361,24.0062 17.2771,24.4722 C17.4641,24.7832 18.0861,25.1252 18.0861,25.3432 L18.0861,25.3432 L18.0861,25.3432 Z M14.4201,28.2612 C13.3951,28.2612 12.2781,26.9902 12.2781,25.8402 C12.2781,25.2182 12.7451,24.4412 13.0831,24.4412 C13.2081,24.4412 13.2711,24.5352 13.3021,24.7512 C13.4881,26.2752 14.4831,27.1442 15.4151,27.5782 C15.5081,27.6402 15.5711,27.6712 15.5711,27.7332 C15.5711,27.9512 14.9791,28.2612 14.4201,28.2612 L14.4201,28.2612 L14.4201,28.2612 Z M17.0611,20.4352 C17.2151,19.9372 17.3401,19.3182 17.3401,18.6342 C17.3401,17.1422 16.6581,14.8762 14.5441,14.8762 C13.3331,14.8762 12.4651,15.8372 12.4651,16.9882 C12.4651,19.4422 14.9181,20.4352 17.0611,20.4352 L17.0611,20.4352 L17.0611,20.4352 Z M83.7741,45.7472 C84.2711,44.1932 84.8901,43.1042 85.9121,41.4282 C84.8901,40.9022 82.1891,39.7832 82.1891,37.9512 C82.1891,35.8082 84.8611,34.1322 85.4161,34.1322 C85.6651,34.1322 85.7291,34.3502 85.7291,34.7532 C85.7291,35.8712 85.1991,37.6712 85.1991,38.6342 C85.1991,39.5022 85.7591,40.3412 86.2551,40.3412 C86.7831,40.3412 88.2441,38.4792 88.2441,36.6472 C88.2441,33.3552 85.3551,32.3622 84.4571,32.3622 C83.6171,32.3622 82.0951,33.7282 78.5211,33.7282 C71.8451,33.7282 70.3231,27.1132 70.3231,24.2242 C70.3231,24.0992 70.3531,24.0682 70.3841,24.0682 C70.5401,24.0682 71.1941,24.8762 73.3051,24.8762 C74.3931,24.8762 75.3871,24.5972 76.9721,24.5972 C80.6961,24.5972 82.3441,27.1752 84.6441,30.4682 C86.0371,31.3362 89.3621,32.7342 89.3621,36.6782 C89.3621,40.1552 85.6651,42.0822 84.7671,45.8082 C86.1941,45.6542 87.0321,43.1042 88.4931,43.1042 C89.2391,43.1042 89.5801,43.6972 89.5801,44.6262 C89.5801,45.9962 88.8041,48.0442 87.3121,49.3182 C87.3441,49.1932 87.3441,49.0382 87.3441,48.8532 C87.3441,47.9822 87.0001,46.7402 86.0071,46.7402 C84.4571,46.7402 83.9601,48.4172 83.0881,49.8142 C82.1891,46.6482 80.9761,43.7892 78.8031,42.0502 C76.5991,40.2792 72.8091,41.2422 72.8091,38.0132 C72.8091,37.1432 73.3671,35.9022 73.3671,34.9092 C73.3671,34.5682 73.3051,34.2562 73.1181,34.0082 C76.1011,35.1252 75.0451,37.1132 76.8781,39.1622 C78.0251,40.4662 81.1941,41.7092 83.0271,47.0802 C83.0581,46.9262 83.0881,46.5232 83.0881,46.2442 C83.0881,41.6472 77.0031,37.1432 76.4761,35.2812 C80.0141,35.6852 80.6341,36.5542 82.3141,41.2102 C82.6531,42.1752 83.7741,44.5662 83.7741,45.7472 L83.7741,45.7472 L83.7741,45.7472 Z M41.3791,10.0002 C41.3791,8.1352 36.2871,4.6882 36.2871,3.2922 C36.2871,3.2302 36.2871,3.1992 36.3161,3.1362 C36.6901,2.1112 40.9121,1.3962 40.9121,0.5572 C40.9121,0.1532 40.1681,0.1532 39.7951,0.1532 C36.9061,0.1532 32.6821,1.2102 32.6821,2.2362 C32.6821,3.2922 36.4721,5.8702 36.4721,7.1442 C36.4721,7.4842 36.2561,7.6092 35.9131,7.6092 C34.8581,7.6092 32.5571,6.3352 31.4721,6.3352 C30.9741,6.3352 30.7891,6.6752 30.7891,7.1732 C30.7891,8.6642 32.5571,11.4922 32.5571,12.3292 C32.5571,12.4212 32.5261,12.5462 32.4041,12.5462 C31.8441,12.5462 29.2041,9.4412 28.2741,9.4412 C27.9321,9.4412 27.9001,9.9062 27.9001,10.5892 L27.9001,11.6462 C27.9001,12.3592 27.8691,12.7942 27.5271,12.7942 C26.7191,12.7942 26.3471,10.5272 25.5701,10.5272 C24.7621,10.5272 24.6081,14.5662 23.8321,14.5662 C22.9311,14.5662 23.7071,10.1242 22.8371,10.1242 C21.8751,10.1242 20.7871,13.0752 20.1051,13.0752 C19.8561,13.0752 19.7941,12.8262 19.7941,12.6082 C19.7941,11.7102 20.3221,10.2502 20.3221,9.3782 C20.3221,8.9432 20.1981,8.6952 19.8241,8.6952 C18.8611,8.6952 16.7511,10.2502 15.9421,10.2502 C15.8191,10.2502 15.6631,10.1872 15.6631,10.0622 C15.6631,9.3162 19.0491,6.9572 19.0491,5.9002 C19.0491,4.8752 14.3891,5.5582 14.3891,4.3782 C14.3891,3.3852 17.7131,2.3592 17.7131,1.3342 C17.7131,0.4332 13.7681,0.0312 12.2481,0.0312 C10.4131,0.0312 9.4201,0.2482 9.4201,0.7752 C9.4201,1.5842 13.5821,1.8322 13.5821,2.5462 C13.5821,3.2302 9.2641,5.0612 9.2641,6.1192 C9.2641,7.0492 15.3531,6.1792 15.3531,7.1442 C15.3531,8.1982 10.0411,12.7632 10.0411,14.2862 C10.0411,14.6282 10.2901,14.7832 10.6311,14.7832 C12.2481,14.7832 16.4401,11.7102 17.5881,11.7102 C17.9911,11.7102 18.0231,12.2052 18.0231,12.6392 C18.0231,13.4472 17.7441,14.6892 17.7441,15.5912 C17.7441,16.3042 17.9291,16.8012 18.5521,16.8012 C19.7011,16.8012 20.7571,14.8452 21.5321,14.8452 C22.5271,14.8452 21.9361,20.5892 23.4281,20.5892 C24.7001,20.5892 25.2281,14.3782 26.0361,14.3782 C26.8441,14.3782 27.4961,16.1792 28.2421,16.1792 C29.1731,16.1792 28.7381,13.0432 29.7321,13.0432 C30.8191,13.0432 33.9241,16.7702 35.3221,16.7702 C35.7581,16.7702 35.9131,16.4272 35.9131,15.9932 C35.9131,14.3482 33.6151,10.6212 33.6151,9.4412 C33.6151,9.1292 33.7081,9.0372 34.0491,9.0372 C35.2601,9.0372 38.8011,10.7142 40.4781,10.7142 C41.0361,10.7142 41.3791,10.4042 41.3791,10.0002 L41.3791,10.0002 L41.3791,10.0002 Z M38.1491,3.8502 C38.1491,4.4102 40.1061,5.6212 41.0061,5.6212 C41.5341,5.6212 41.6901,4.9062 41.6901,4.1602 C41.6901,3.2302 41.2851,3.1992 40.4781,3.1992 C39.4541,3.1992 38.1491,3.4782 38.1491,3.8502 L38.1491,3.8502 L38.1491,3.8502 Z M78.4601,59.9102 C78.0251,59.9102 77.5581,60.2522 77.5581,61.0872 C77.5581,62.0202 78.2751,62.6102 78.6771,62.7962 C78.8951,62.9202 79.2361,63.0442 79.5781,63.0442 C80.4791,63.0442 81.1941,62.7962 81.1941,62.0502 C81.1941,61.0872 79.7971,59.9102 78.4601,59.9102 L78.4601,59.9102 L78.4601,59.9102 Z M75.1081,61.8342 C74.4551,61.8342 70.8511,66.6492 68.5241,66.6492 C67.9641,66.6492 67.4971,65.5922 67.4971,64.7862 C67.4971,64.3502 67.7771,64.0392 68.7731,63.8222 C74.1131,62.6102 72.9331,58.6052 77.4961,58.6052 C80.0141,58.6052 82.8111,60.3142 82.8111,64.1652 C82.8111,68.2612 76.9721,73.3582 76.1011,73.3582 C75.3871,73.3582 74.6101,72.3322 74.6101,71.6492 C74.6101,71.4302 74.7031,71.1512 75.3251,70.9032 C78.3051,69.7212 80.0141,66.9912 80.0141,65.5922 C80.0141,65.2822 79.8601,64.9712 79.4541,64.9712 C78.9251,64.9712 76.6611,70.1262 74.1451,70.1262 C72.4031,70.1262 70.6341,68.5422 70.6341,67.7992 C70.6341,66.5552 75.6661,64.2562 75.6661,62.5162 C75.6661,61.8642 75.3561,61.8342 75.1081,61.8342 L75.1081,61.8342 L75.1081,61.8342 Z M30.8501,0.6812 C30.8501,0.4962 29.9191,0.3082 28.6441,0.3082 C26.6261,0.3082 26.9061,1.9872 25.3531,1.9872 C23.7381,1.9872 24.1421,0.2482 22.0921,0.2482 C20.8481,0.2482 19.7011,0.4642 19.7011,0.7442 C19.7011,1.1172 21.1591,0.9612 21.1591,1.9872 C21.1591,3.0742 18.0231,3.3852 18.0231,4.0362 C18.0231,4.2532 18.2721,4.3462 18.5831,4.3462 C19.2661,4.3462 20.3531,4.0362 21.1281,4.0362 C21.5641,4.0362 21.9671,4.1292 21.9671,4.5332 C21.9671,5.3102 20.2911,6.7082 20.2911,7.3302 C20.2911,7.5162 20.4471,7.5782 20.6021,7.5782 C21.2221,7.5782 22.2791,5.9932 23.2721,5.9932 C24.9181,5.9932 23.8321,9.5032 24.7311,9.5032 C25.6631,9.5032 25.2581,6.0562 26.5951,6.0562 C27.6831,6.0562 28.4911,8.4472 29.2351,8.4472 C29.4211,8.4472 29.5761,8.2922 29.5761,8.0742 C29.5761,7.4232 28.6441,6.0862 28.6441,5.2162 C28.6441,4.6882 29.0171,4.4402 29.5151,4.4402 C30.2291,4.4402 31.1921,4.8752 31.7201,4.8752 C31.9071,4.8752 32.0931,4.8132 32.0931,4.5952 C32.0931,3.8502 29.3281,3.0432 29.3281,2.0802 C29.3281,1.1172 30.8501,1.1172 30.8501,0.6812 L30.8501,0.6812 L30.8501,0.6812 Z M38.6461,19.1932 C40.6941,19.1932 41.6271,20.9632 41.6271,22.9512 C41.6271,23.8202 41.3791,25.0932 40.9761,25.0932 C40.5711,25.0932 40.6331,24.3782 40.5711,23.7262 C40.5091,22.8892 40.3541,22.7032 40.0751,22.7032 C39.5471,22.7032 39.2061,23.9452 39.2061,25.0932 C39.2061,25.8082 39.3281,26.6162 39.8891,26.6162 C40.1971,26.6162 40.4781,26.4602 40.6641,26.2752 C40.5401,27.7032 39.4851,28.9452 37.9941,28.9452 C35.2601,28.9452 34.2351,25.7462 33.9241,23.8822 C32.2801,25.6232 30.7581,26.8952 28.0241,26.8952 C25.4771,26.8952 24.3301,25.0332 24.3301,23.2612 C24.3301,22.7332 24.5151,21.3672 25.1661,21.3672 C25.9441,21.3672 25.2581,23.9142 26.7821,23.9142 C27.1551,23.9142 27.8381,23.6022 28.2111,22.5792 C28.4291,21.9582 28.5521,21.3042 28.5521,20.7462 C28.5521,19.9062 28.3671,19.3792 27.7451,19.3792 C27.2161,19.3792 26.5641,19.7832 26.3471,20.0002 C27.0921,17.7632 28.8931,16.6152 30.8811,16.6152 C33.3351,16.6152 34.6401,18.7902 34.6401,21.2112 C34.6401,21.5532 34.6081,21.9272 34.5461,22.2672 C35.6031,20.5272 37.0621,19.1932 38.6461,19.1932 L38.6461,19.1932 L38.6461,19.1932 Z M56.2841,81.6192 C57.7761,81.6192 57.6831,81.4952 58.1501,81.4952 C58.6151,81.4952 58.6461,81.7752 58.6461,81.9602 C58.6461,82.6452 57.1231,83.4832 54.4221,83.4832 C52.8371,83.4832 51.8741,82.6452 51.5971,81.7122 C50.0421,82.7072 47.6841,83.6082 45.3561,83.6082 C38.9871,83.6082 37.3711,80.8432 35.3851,79.9412 C33.8631,79.2582 31.5331,80.5932 28.2741,76.9592 C28.7061,77.0522 29.2971,77.0832 29.7631,77.0832 C32.6211,77.0832 34.1431,75.6872 34.1431,73.4522 C34.1431,73.1702 34.1111,72.8602 34.0801,72.5822 C34.9511,72.9222 36.9381,74.4142 37.4031,77.0522 C37.4651,77.3632 38.7391,77.6412 39.5471,77.6412 C40.6641,77.6412 42.0941,77.1752 42.3111,75.3452 C46.0381,75.0362 48.5511,72.8292 49.0791,70.0332 C50.4151,70.4682 51.9361,71.6792 52.3101,72.3002 C52.8371,72.1142 53.4591,72.0212 54.1731,72.0212 C55.1681,72.0212 56.2841,72.2082 57.6211,72.6122 C57.6831,72.2082 57.7451,71.7102 58.3671,71.7102 C59.2981,71.7102 59.0501,72.7362 59.3611,73.3262 C59.5171,73.6362 60.2921,73.8232 60.2921,74.4452 C60.2921,75.0362 59.7941,75.2512 59.4851,75.2512 C59.3611,75.2512 59.2061,75.2212 59.1121,75.1912 C58.4911,75.4102 58.4591,79.8782 55.8501,79.8782 C53.9251,79.8782 52.1541,78.2942 51.3791,76.3062 C51.1621,75.7172 50.6951,75.3452 50.2601,75.3452 C49.7631,75.3452 49.4841,75.4402 48.8931,76.0892 C47.2171,77.9212 44.4231,79.5052 40.9761,79.5052 C39.9201,79.5052 39.0811,79.4142 38.8621,79.4142 C38.7391,79.4142 38.7391,79.4452 38.7391,79.4752 C38.7391,79.6932 39.7951,80.5322 42.0941,80.5322 C47.5581,80.5322 48.8931,77.4562 49.7631,77.4562 C49.8891,77.4562 50.2601,77.4562 50.4781,77.9532 C51.7511,80.9362 54.5161,81.6192 56.2541,81.6192 L56.2841,81.6192 L56.2841,81.6192 Z M9.0171,32.8592 C9.0171,35.2182 9.7291,36.3362 11.0041,36.3362 C11.9981,36.3362 13.3331,35.6232 14.9181,34.2562 C13.7061,34.5372 12.7761,34.7222 11.9361,34.7222 C10.8181,34.7222 9.9471,34.2892 9.0171,32.8592 L9.0171,32.8592 L9.0171,32.8592 Z M10.1031,30.0942 C10.0721,30.2502 10.0721,30.4062 10.0721,30.5602 C10.0721,32.0192 10.8491,32.8282 11.8751,32.8282 C12.6501,32.8282 13.5511,32.3622 14.3581,31.3362 C14.0171,31.3982 13.6121,31.4292 13.2401,31.4292 C12.0911,31.4292 10.8491,31.1212 10.1031,30.0942 L10.1031,30.0942 L10.1031,30.0942 Z M17.7131,29.6602 C16.9981,29.8462 15.5081,30.7162 15.5081,32.2672 C15.5081,33.3862 16.3781,34.1012 17.4641,34.1012 C18.0231,34.1012 18.4271,33.9762 18.6751,33.7912 C17.8051,32.9522 17.4951,32.0192 17.4951,31.0892 C17.4951,30.4372 17.5881,30.0332 17.7131,29.6602 L17.7131,29.6602 L17.7131,29.6602 Z M20.8171,63.4182 C19.7941,63.6682 18.1481,65.2822 18.1481,67.8302 C18.1481,70.8722 21.4081,75.5632 26.7821,75.5632 C31.3171,75.5632 32.4341,72.4252 32.4341,70.3122 C32.4341,65.6252 29.5451,62.3312 25.7881,62.3312 C23.7381,62.3312 21.9051,63.8222 21.9051,66.0272 C21.9051,68.0792 23.4591,71.1512 27.1551,71.1512 C28.8931,71.1512 29.9191,69.9092 29.9191,68.4792 C29.9191,67.0852 28.6441,65.1582 26.7821,65.1582 C26.2221,65.1582 25.8191,65.5302 25.8191,66.1222 C25.8191,66.8662 26.8441,67.6132 28.1181,67.6132 C28.4291,67.6132 28.6751,67.5502 28.8001,67.4882 C28.8621,67.5822 28.8931,67.7372 28.8931,67.8612 C28.8931,68.5732 28.2111,69.0072 27.1551,69.0072 C25.5701,69.0072 24.0491,67.8302 24.0491,65.9642 C24.0491,64.8472 25.0101,64.0392 26.4101,64.0392 C29.1731,64.0392 30.8191,66.4942 30.8191,68.9442 C30.8191,71.1512 29.6071,72.4252 27.1241,72.4252 C22.1531,72.4252 19.7321,67.9542 20.8171,63.4182 L20.8171,63.4182 L20.8171,63.4182 Z M67.2191,16.7402 C67.6221,16.4912 69.3601,16.8942 71.6281,15.7752 C71.9071,15.6232 72.1871,15.5602 72.4351,15.5602 C73.5241,15.5602 73.2421,16.8012 74.2381,16.8012 C75.0151,16.8012 76.0081,16.1492 76.5991,16.1492 C77.5271,16.1492 78.8641,19.0692 78.8641,20.4352 C78.8641,22.0192 76.4761,22.9822 73.6481,22.9822 C69.5161,22.9822 67.0321,19.3792 67.0321,17.0502 C67.0321,16.8632 67.1261,16.8012 67.2191,16.7402 L67.2191,16.7402 L67.2191,16.7402 Z M73.9891,20.6832 C75.3561,20.6832 76.3821,20.0622 76.3821,19.6892 C76.3821,19.5652 76.1941,19.4732 75.7911,19.4732 C75.3871,19.4732 74.5781,19.4422 73.0571,19.1932 C71.7511,18.9762 70.7571,18.4802 70.3841,18.4802 C70.2601,18.4802 70.1991,18.5412 70.1991,18.6342 C70.1991,19.4422 71.6891,20.6832 73.9891,20.6832 L73.9891,20.6832 L73.9891,20.6832 Z M20.1671,51.7092 C21.4711,51.7092 22.5581,50.7462 22.5581,48.6032 L22.5581,45.4362 C22.5581,44.2242 22.6501,42.8572 23.4591,41.8952 C23.3651,42.2992 23.3651,42.7342 23.3651,43.1362 C23.3651,45.8082 24.8561,47.6402 24.8561,50.2192 C24.8561,51.1802 24.5771,51.7092 23.8321,51.7092 C23.1171,51.7092 23.1791,51.0572 23.0241,51.0572 C22.9001,51.0572 22.7131,51.4602 22.7131,51.8942 C22.7131,52.5482 23.1791,53.5732 24.4841,53.5732 C25.6011,53.5732 26.5021,52.5482 26.5021,51.3982 C26.5021,48.6032 24.3301,45.4992 24.3301,42.5162 C24.3301,41.2102 24.6691,40.3412 24.9491,39.6582 C24.9491,45.8392 30.1981,50.3432 30.1981,52.9212 C30.1981,53.5112 29.7631,53.9782 29.1101,53.9782 C28.3981,53.9782 28.0551,53.4182 28.0551,52.9832 C28.0551,52.7652 28.0241,52.7042 27.9321,52.7042 C27.7451,52.7042 27.1851,53.3242 27.1851,54.1322 C27.1851,55.1562 28.0241,56.3992 29.5761,56.3992 C31.3471,56.3992 32.3111,54.9082 32.3111,53.5732 C32.3111,50.3122 25.9441,45.3732 25.9441,40.0932 C25.9441,39.1922 26.0981,37.7342 26.7511,36.6162 C22.6501,39.2532 21.3771,42.7652 21.3771,45.8392 C21.3771,48.5092 21.2831,49.8452 19.9181,49.8452 C19.2041,49.8452 19.0181,49.1932 18.7691,49.1932 C18.5831,49.1932 18.4881,49.7532 18.4881,49.9082 C18.4881,51.0572 19.3271,51.7092 20.1671,51.7092 L20.1671,51.7092 L20.1671,51.7092 Z M18.8311,21.1502 C18.8311,21.8342 19.3891,22.3922 20.0741,22.3922 C20.7571,22.3922 21.3151,21.8342 21.3151,21.1502 C21.3151,20.4662 20.7571,19.9062 20.0741,19.9062 C19.3891,19.9062 18.8311,20.4662 18.8311,21.1502 L18.8311,21.1502 L18.8311,21.1502 Z M20.4471,23.9452 C20.4471,24.6272 21.0051,25.1872 21.6881,25.1872 C22.3721,25.1872 22.9311,24.6272 22.9311,23.9452 C22.9311,23.2612 22.3721,22.7032 21.6881,22.7032 C21.0051,22.7032 20.4471,23.2612 20.4471,23.9452 L20.4471,23.9452 L20.4471,23.9452 Z M53.8631,75.4102 C53.8631,76.0892 54.4221,76.6482 55.1061,76.6482 C55.7871,76.6482 56.3471,76.0892 56.3471,75.4102 C56.3471,74.7232 55.7871,74.1662 55.1061,74.1662 C54.4221,74.1662 53.8631,74.7232 53.8631,75.4102 L53.8631,75.4102 L53.8631,75.4102 Z M57.9941,29.6282 C57.9941,30.3122 58.5531,30.8722 59.2361,30.8722 C59.9191,30.8722 60.4781,30.3122 60.4781,29.6282 C60.4781,28.9452 59.9191,28.3862 59.2361,28.3862 C58.5531,28.3862 57.9941,28.9452 57.9941,29.6282 L57.9941,29.6282 L57.9941,29.6282 Z M56.9391,34.0082 C56.9391,34.9722 57.7451,35.7782 58.7081,35.7782 C59.6711,35.7782 60.4781,34.9722 60.4781,34.0082 C60.4781,33.0452 59.6711,32.2382 58.7081,32.2382 C57.7451,32.2382 56.9391,33.0452 56.9391,34.0082 L56.9391,34.0082 L56.9391,34.0082 Z M60.8511,32.0192 C60.8511,33.0762 61.6891,33.9162 62.7461,33.9162 C63.8011,33.9162 64.6401,33.0762 64.6401,32.0192 C64.6401,30.9642 63.8011,30.1252 62.7461,30.1252 C61.6891,30.1252 60.8511,30.9642 60.8511,32.0192 L60.8511,32.0192 L60.8511,32.0192 Z M61.0061,27.9822 C61.0061,28.6332 61.5341,29.1642 62.1861,29.1642 C62.8391,29.1642 63.3681,28.6332 63.3681,27.9822 C63.3681,27.3302 62.8391,26.8032 62.1861,26.8032 C61.5341,26.8032 61.0061,27.3302 61.0061,27.9822 L61.0061,27.9822 L61.0061,27.9822 Z M66.6281,25.0002 C66.6281,25.6542 67.1571,26.1812 67.8091,26.1812 C68.4611,26.1812 68.9891,25.6542 68.9891,25.0002 C68.9891,24.3482 68.4611,23.8202 67.8091,23.8202 C67.1571,23.8202 66.6281,24.3482 66.6281,25.0002 L66.6281,25.0002 L66.6281,25.0002 Z M64.2991,28.8212 C64.2991,29.9082 65.1991,30.8082 66.2871,30.8082 C67.3731,30.8082 68.2741,29.9082 68.2741,28.8212 C68.2741,27.7332 67.3731,26.8342 66.2871,26.8342 C65.1991,26.8342 64.2991,27.7332 64.2991,28.8212 L64.2991,28.8212 L64.2991,28.8212 Z M61.0981,36.0882 C61.0981,36.7732 61.6571,37.3292 62.3421,37.3292 C63.0261,37.3292 63.5831,36.7732 63.5831,36.0882 C63.5831,35.4042 63.0261,34.8472 62.3421,34.8472 C61.6571,34.8472 61.0981,35.4042 61.0981,36.0882 L61.0981,36.0882 L61.0981,36.0882 Z M65.1681,33.6042 C65.1681,34.2892 65.7281,34.8472 66.4101,34.8472 C67.0941,34.8472 67.6531,34.2892 67.6531,33.6042 C67.6531,32.9212 67.0941,32.3622 66.4101,32.3622 C65.7281,32.3622 65.1681,32.9212 65.1681,33.6042 L65.1681,33.6042 L65.1681,33.6042 Z M64.0191,37.9822 C64.0191,39.1622 64.9811,40.1252 66.1621,40.1252 C67.3421,40.1252 68.3051,39.1622 68.3051,37.9822 C68.3051,36.8022 67.3421,35.8392 66.1621,35.8392 C64.9811,35.8392 64.0191,36.8022 64.0191,37.9822 L64.0191,37.9822 L64.0191,37.9822 Z M68.4911,35.3412 C68.4911,36.1502 69.1461,36.8022 69.9491,36.8022 C70.7571,36.8022 71.4091,36.1502 71.4091,35.3412 C71.4091,34.5372 70.7571,33.8842 69.9491,33.8842 C69.1461,33.8842 68.4911,34.5372 68.4911,35.3412 L68.4911,35.3412 L68.4911,35.3412 Z M68.4011,31.4292 C68.4011,32.1442 68.9891,32.7342 69.7011,32.7342 C70.4151,32.7342 71.0061,32.1442 71.0061,31.4292 C71.0061,30.7162 70.4151,30.1252 69.7011,30.1252 C68.9891,30.1252 68.4011,30.7162 68.4011,31.4292 L68.4011,31.4292 L68.4011,31.4292 Z M85.7291,1.9872 C85.7291,2.4222 86.0691,2.7632 86.5051,2.7632 C86.9391,2.7632 87.2811,2.4222 87.2811,1.9872 C87.2811,1.5522 86.9391,1.2102 86.5051,1.2102 C86.0691,1.2102 85.7291,1.5522 85.7291,1.9872 L85.7291,1.9872 L85.7291,1.9872 Z M16.5331,58.9472 C16.6581,60.0032 17.6501,60.8082 18.7691,60.6852 C19.1721,60.6522 19.5461,60.5292 19.7941,60.3732 C20.0431,61.3682 20.8171,61.9892 21.9671,61.8642 C23.1171,61.7712 23.9251,60.8082 23.8001,59.6622 C23.8001,59.3502 23.7071,59.1652 23.6141,58.9472 L23.8321,58.9162 C24.9181,58.7922 25.7571,57.7972 25.6631,56.7102 C25.5391,55.5912 24.5151,54.7842 23.4591,54.8762 C23.0541,54.9702 22.7131,55.0932 22.4651,55.3112 C22.1851,54.3802 21.3771,53.6342 20.2291,53.7592 C19.1411,53.8222 18.3021,54.8762 18.4271,56.0252 C18.4271,56.1822 18.4881,56.4312 18.5831,56.6472 L18.3651,56.6772 C17.2771,56.8342 16.4401,57.7352 16.5331,58.9472 L16.5331,58.9472 L16.5331,58.9472 Z M19.9801,57.9842 C19.9481,57.3632 20.3841,56.7722 21.0361,56.7102 C21.6881,56.6172 22.2791,57.1142 22.3401,57.7652 C22.4031,58.4182 21.9361,58.9782 21.2831,59.0712 C20.6321,59.1032 20.0431,58.6352 19.9801,57.9842 L19.9801,57.9842 L19.9801,57.9842 Z M59.8251,12.0802 C60.3221,12.0802 60.4161,13.2932 60.5091,14.0062 C60.5711,14.3782 60.6331,14.4102 60.7891,14.4102 C61.1621,14.4102 61.7521,12.9812 62.1551,12.9812 C62.7461,12.9812 64.3301,14.6282 66.9691,14.6282 C70.7261,14.6282 74.2691,11.9882 74.2691,7.3302 C74.2691,2.8252 71.1001,0.1852 66.7221,0.1852 C64.6401,0.1852 63.1181,1.2102 62.3111,1.2102 C61.8141,1.2412 61.0691,0.0002 60.6941,0.0002 C60.5391,0.0002 60.3851,0.3082 60.3851,0.8372 C60.3851,1.1782 60.3851,2.2672 60.0111,2.2672 C59.2671,2.2672 56.3791,0.1232 56.3791,0.8992 C56.3791,1.6152 58.3041,3.7892 58.3041,4.3462 C58.3041,4.9062 56.4091,5.4332 56.4091,5.8062 C56.4091,6.4902 58.4291,6.6152 58.4291,7.4842 C58.4291,8.3532 56.3151,9.0372 56.3151,9.6892 C56.3151,10.2182 58.4291,9.8442 58.4291,10.4982 C58.4291,11.1492 56.8751,13.3222 56.8751,13.9452 C56.8751,14.1012 56.9061,14.1012 57.0311,14.1012 C57.6211,14.1012 59.3921,12.0802 59.8251,12.0802 L59.8251,12.0802 L59.8251,12.0802 Z M12.2481,42.6102 C13.3021,42.6102 13.0831,36.1502 14.7931,36.1502 C15.1981,36.1502 15.3211,36.5542 15.3211,37.0502 C15.3211,38.5102 14.6071,40.6532 14.6071,41.8342 C14.6071,42.4232 14.7621,42.6102 15.0411,42.6102 C15.7871,42.6102 17.0911,35.4982 18.3651,35.4982 C18.7691,35.4982 18.9551,35.9022 18.9551,36.3062 C18.9551,37.7952 17.0611,42.0822 17.0611,43.2932 C17.0611,43.4782 17.1231,43.6332 17.2771,43.6332 C18.0541,43.6332 19.6081,40.2792 20.1051,38.6032 C20.3841,37.7342 20.7571,37.2672 21.0971,37.2672 C21.4081,37.2672 21.6881,37.6092 21.6881,38.3242 C21.6881,40.0012 20.1361,43.9452 18.7691,46.5852 C17.7131,48.6342 16.0671,51.5852 16.0671,53.2322 C16.0671,54.0702 16.2231,54.9392 17.4331,55.9952 C15.4451,55.8712 14.6381,55.6852 13.8921,54.1322 C10.5691,60.7462 20.0111,60.0962 16.7811,65.9642 C16.1921,64.9102 11.5321,63.8222 11.5321,57.6732 C11.5321,52.3612 16.1921,49.2552 16.1921,47.0502 C16.1921,46.6172 16.0351,46.2442 15.6321,45.9022 C14.6071,45.0332 14.5761,44.3172 13.7681,44.3172 C13.1781,44.3172 12.4651,45.6852 13.2081,46.8942 C13.4571,47.2982 13.6751,47.5462 13.6751,47.9192 C13.6751,48.7912 12.3091,51.1182 11.3461,51.1182 C10.3831,51.1182 9.6371,48.7282 9.6371,44.8762 C9.6371,41.4602 10.4131,38.0132 11.3771,38.0132 C11.6561,38.0132 11.7501,38.1992 11.7501,38.4492 C11.7501,38.8512 11.6251,39.6582 11.6251,41.0252 C11.6251,42.4862 11.9671,42.6102 12.2481,42.6102 L12.2481,42.6102 L12.2481,42.6102 Z M81.7231,18.2612 C81.2871,18.2612 80.6651,18.2612 80.3241,17.5782 C80.0431,17.0192 80.1391,16.1192 79.6101,15.7132 C80.1391,15.8692 80.6961,15.8692 81.1321,15.8692 C82.5301,15.8692 83.8661,14.9082 84.8901,14.9082 C85.5731,14.9082 85.7901,15.3432 85.7901,15.7752 C85.7901,17.1422 83.0271,18.2612 81.7231,18.2612 L81.7231,18.2612 L81.7231,18.2612 Z M82.4061,21.7712 C85.6351,21.7712 88.5871,19.1932 88.5871,16.9252 C88.5871,15.8692 88.0891,15.0012 86.8151,14.8452 C87.0321,15.1252 87.1261,15.3432 87.1261,15.8372 C87.1261,17.5462 84.5201,19.4422 81.6911,19.4422 C80.6651,19.4422 80.3551,20.1552 80.3551,20.5272 C80.3551,21.3982 81.1941,21.7712 82.4061,21.7712 L82.4061,21.7712 L82.4061,21.7712 Z M82.1571,23.0762 C82.5621,26.0262 87.0321,30.0012 88.2441,29.9082 C89.0531,29.9082 89.3621,26.0562 89.3621,23.0762 C89.3621,21.3672 89.4561,20.0312 88.5551,19.7202 C87.1261,22.6102 83.3681,23.2012 82.1571,23.0762 L82.1571,23.0762 Z M0.0124,104.3132 C-0.0466,101.9092 0.0714,99.5102 1.0684,96.1172 C1.5934,94.3052 2.0634,93.6592 3.7004,93.3102 C4.9874,93.0752 4.8734,94.4192 4.5804,96.0002 C3.9384,99.5102 3.6404,101.2082 3.8774,105.1902 C4.1074,109.4032 6.0434,111.0422 8.1484,111.0422 C11.3084,111.1022 12.7144,108.4692 13.2994,104.6632 C13.7664,101.6202 13.4144,100.1532 13.1204,99.2192 C12.9474,98.6932 12.4784,97.5202 12.3024,96.6452 C12.0704,94.4192 13.1204,93.3702 14.0014,93.0752 C15.0564,92.7812 15.4674,93.3102 15.8734,94.5402 C16.4024,96.4132 16.4604,98.8662 16.2844,102.3762 C16.0514,107.1752 13.6504,112.9752 7.6814,112.8552 C2.5294,112.7422 0.2494,109.4032 0.0124,104.3132 L0.0124,104.3132 Z M39.4274,93.4272 C39.3724,92.4882 38.6114,91.8452 37.6164,91.8452 C36.5034,91.8452 35.4474,93.0152 35.5694,94.4782 C35.5694,95.3552 36.2104,96.2342 37.3264,96.2342 C38.6114,96.2342 39.5484,94.7752 39.4274,93.4272 L39.4274,93.4272 Z M84.6164,104.5462 C84.6164,103.0832 83.2714,101.0322 81.2814,101.0322 C78.6464,101.0322 76.0754,103.9012 76.0754,107.8802 C76.0754,111.4492 78.2944,112.6242 80.5174,112.6242 C84.3824,112.6242 86.7254,109.4582 87.9524,106.8272 C88.5404,108.5832 88.8864,112.6242 90.3524,112.6242 C90.9374,112.6242 91.3474,112.3312 92.0524,110.7492 C93.8064,106.8272 95.5024,102.3202 97.8474,102.3202 C98.7224,102.3202 98.1974,103.9012 100.3024,103.9012 C101.2994,103.9012 101.9984,103.0832 101.9984,102.1422 C101.9984,100.7962 100.7714,99.7432 98.8964,99.7432 C93.3984,99.7432 92.2284,107.9992 91.3474,107.9992 C89.8844,107.9992 90.3524,101.3852 89.2984,101.3852 C88.3614,101.3852 87.8914,102.4992 87.7754,103.0222 C87.0134,106.0672 84.8504,110.4582 81.5714,110.4582 C80.8114,110.4582 79.4654,110.1642 79.4654,109.4032 C79.4654,108.5832 84.6164,108.4692 84.6164,104.5462 L84.6164,104.5462 Z M40.9514,110.0462 C41.8294,110.0462 43.3374,109.7612 44.5254,107.8582 C43.8454,106.3532 43.3624,103.3042 43.2924,102.1952 C42.9434,96.5232 45.1304,91.1882 47.5224,91.0422 C49.2764,90.9362 50.6794,92.5962 50.8414,95.2802 C51.2734,102.3522 48.9164,105.3042 47.7414,107.8452 C47.9394,108.8352 49.6114,110.5152 51.1934,110.5152 C51.7784,110.5152 52.4814,110.2232 52.6584,109.9862 C52.5404,109.5812 52.4214,109.0532 52.4214,108.2902 C52.4214,104.1962 55.0584,100.7392 57.3404,100.7392 C59.1564,100.7392 60.2054,103.1382 60.2054,104.7242 C60.2054,106.5932 58.6264,108.1182 56.2864,109.5812 C56.6984,109.9862 57.4564,110.2822 58.1024,110.2822 C61.4384,110.2822 63.1914,106.2462 64.4824,102.5532 C64.7164,101.8512 65.1284,100.8572 65.9434,100.8572 C67.3494,100.8572 67.9364,110.1042 70.2744,110.1042 C71.2724,110.1042 72.0894,108.0552 72.0894,106.4792 C72.0894,105.3072 71.6794,105.1902 71.6794,103.4902 C71.6794,101.6202 72.6754,100.0382 74.0234,100.0382 C74.8414,100.0382 75.1364,100.8572 75.1364,101.8512 C75.1364,105.5992 72.4434,112.5652 68.4654,112.5652 C65.4754,112.5652 65.7094,107.4092 64.6604,107.4092 C63.4854,107.4092 61.8454,112.6242 56.0524,112.6242 C55.1134,112.6242 54.1214,112.1562 53.3044,111.2142 C51.8984,112.1562 50.7244,112.5652 49.3784,112.5652 C47.2144,112.5652 46.2774,110.3382 45.4014,110.3382 C44.3454,110.3382 43.1794,112.6242 39.6644,112.6242 C36.8524,112.6242 36.3854,108.8792 35.3924,108.8792 C34.5134,108.8792 33.1674,112.6242 31.7054,112.6242 C29.2414,112.6242 28.7194,106.1272 26.5524,106.1272 C24.8534,106.1272 19.4914,112.7242 18.0344,112.5752 C17.4494,112.5122 17.2034,112.0762 17.2654,111.4892 C17.3474,110.6792 18.0434,108.5122 18.3284,107.4842 C18.8024,105.7082 19.2364,103.7522 19.4784,103.1312 C19.7194,102.5052 20.3714,102.0572 20.8904,102.1062 C21.1534,102.1312 21.2324,102.6212 21.3144,103.0242 C21.6084,104.4762 22.0234,105.9502 22.4894,105.9502 C23.3104,105.9502 26.0274,100.7392 27.6054,100.7392 C29.5384,100.7392 29.7714,108.9352 32.4054,108.9352 C33.2844,108.9352 33.9314,107.8802 34.5134,106.5932 C34.5734,104.4242 35.1574,101.3272 36.9134,101.3272 C38.1454,101.3272 38.7294,104.0742 37.8494,106.4792 C37.8494,109.3432 39.7224,110.0462 40.9514,110.0462 L40.9514,110.0462 Z" id="logo-unilever" fill="#232E83"></path>
    </g>
</svg>