<?xml version="1.0" encoding="utf-8"?>
<!-- Generator: Adobe Illustrator 19.2.1, SVG Export Plug-In . SVG Version: 6.00 Build 0)  -->
<svg version="1.1" id="White" xmlns="http://www.w3.org/2000/svg" xmlns:xlink="http://www.w3.org/1999/xlink" x="0px" y="0px"
	 viewBox="0 0 274.3 58.1" style="enable-background:new 0 0 274.3 58.1;" xml:space="preserve">
<style type="text/css">
	.st0{fill:#EA1D76;}
</style>
<g id="Logo_2_">
	<polygon points="80,14.7 85.7,14.7 85.7,25.9 95.7,25.9 95.7,14.7 101.3,14.7 101.3,44 95.7,44 95.7,31.3 85.7,31.3 85.7,44 80,44 
			"/>
	<path d="M125.3,38.4c-1.2,3.3-4.1,6.2-9,6.2c-5.9,0-9.9-4.1-9.9-11.7c0-7.6,4-11.7,9.8-11.7c5.9,0,9.9,4.1,9.9,11.7v1.6h-14.1
		c0.3,3.2,1.5,4.8,4.3,4.8c2.6,0,3.7-1.6,4.1-2.7L125.3,38.4z M120.1,29.8c-0.5-2-1.7-3.4-4.1-3.4c-2.4,0-3.6,1.4-4.1,3.4H120.1z"/>
	<polygon points="130.9,14.7 149.4,14.7 149.4,20.1 136.5,20.1 136.5,26.6 148.3,26.6 148.3,32.1 136.5,32.1 136.5,44 130.9,44 	"/>
	<path d="M154,32.9c0-7.6,3.9-11.7,9.7-11.7c5.8,0,9.7,4.1,9.7,11.7c0,7.6-3.9,11.7-9.7,11.7C157.9,44.6,154,40.5,154,32.9
		 M168,32.9c0-4.6-1.3-6.5-4.3-6.5c-3,0-4.3,1.9-4.3,6.5c0,4.6,1.3,6.5,4.3,6.5C166.7,39.4,168,37.5,168,32.9"/>
	<path d="M178.1,38.7h5.5V27h-5v-5.2h10.2v1.1c0-0.1,1.3-1.7,3.6-1.7c3,0,6.4,2.4,6.6,8.4l-5.3,0.8c-0.3-2.8-1.3-4.1-2.8-4.1
		c-1.6,0-2,1-2,1.5v10.8h7.9V44h-18.8V38.7z"/>
	<path d="M209,32.8c0.3,2.5,1.2,6.4,6.4,6.4c2.7,0,5.1-1.1,5.1-3.8c0-2.3-1.5-3.4-5.4-4.4c-5.4-1.4-9.7-3.3-9.7-8.7
		c0-4.1,3.3-8.1,9.7-8.1c4.8,0,9,2.6,10.3,8.1l-5.2,1.1c-0.5-1.6-1.9-3.8-5.1-3.8c-2.6,0-4,1.3-4,2.6c0,1.8,2.5,2.6,5.6,3.5
		c4.2,1.3,9.4,2.8,9.4,9.7c0,5.4-4.2,9.3-10.7,9.3c-8.9,0-11.1-6.2-11.6-10.8L209,32.8z"/>
	<path d="M231.1,14.7h5.4v7.7c0,0,2-1.2,4.5-1.2c5.1,0,8.7,4,8.7,9.4V44h-5.4V30.4c0-2.3-1.2-4-3.9-4c-2.6,0-3.8,1.5-3.8,3.6V44
		h-5.4V14.7z"/>
	<path d="M273.7,38.4c-1.2,3.3-4.1,6.2-9,6.2c-5.9,0-9.9-4.1-9.9-11.7c0-7.6,4-11.7,9.8-11.7c5.9,0,9.9,4.1,9.9,11.7v1.6h-14.1
		c0.3,3.2,1.5,4.8,4.3,4.8c2.5,0,3.7-1.6,4.1-2.7L273.7,38.4z M268.5,29.8c-0.5-2-1.7-3.4-4.1-3.4c-2.4,0-3.6,1.4-4.1,3.4H268.5z"/>
	<polygon class="st0" points="21.8,21.8 0,21.8 0,36.3 11.5,36.3 0,47.9 10.3,58.1 21.8,46.6 21.8,58.1 36.3,58.1 36.3,43.6 
		36.3,36.3 36.3,21.8 	"/>
	<polygon points="36.3,21.8 36.3,0 21.8,0 21.8,21.8 21.8,36.3 36.3,36.3 58.1,36.3 58.1,21.8 	"/>
</g>
</svg>
