<?xml version="1.0" encoding="UTF-8" standalone="no"?>
<svg width="140px" height="26px" viewBox="0 0 140 26" version="1.1" xmlns="http://www.w3.org/2000/svg" xmlns:xlink="http://www.w3.org/1999/xlink">
    <!-- Generator: Sketch 3.8.3 (29802) - http://www.bohemiancoding.com/sketch -->
    <title>logo-razorfish</title>
    <desc>Created with Sketch.</desc>
    <defs></defs>
    <g id="Page-1" stroke="none" stroke-width="1" fill="none" fill-rule="evenodd">
        <g id="logo-razorfish" fill="#404040">
            <path d="M27.1779617,18.0724536 C27.1679025,20.051552 26.2223372,21.4801123 24.7365925,22.5416472 C23.2588952,23.5829044 21.2440363,24.1233037 19.4223142,24.1192482 C17.9637294,24.1233037 16.3874519,23.9357355 15.3010577,23.3872251 C14.7558487,23.1134768 14.3393976,22.7717985 14.0567339,22.3459679 C13.7750762,21.9181095 13.5990401,21.3939323 13.5950164,20.6385899 C13.5990401,19.982608 13.7539518,19.4989861 14.0134793,19.0873499 C14.3997528,18.4769927 15.0847847,17.9974263 15.9659711,17.6851505 C16.8370984,17.370847 17.8772202,17.2278896 18.8539691,17.2278896 L18.8630224,17.2278896 L27.187015,17.2278896 C27.187015,17.4681797 27.1779617,18.0278428 27.1779617,18.0724536 L27.1779617,18.0724536 Z M19.3267517,8.57541725 C18.2162154,8.57541725 17.171064,8.66261114 16.335144,8.76602714 L16.335144,10.5707378 C17.1489337,10.4774606 18.2202391,10.3943223 19.5319595,10.3943223 C24.0042823,10.4095305 26.8128126,11.6647169 27.1518078,15.4079707 L18.8630224,15.4079707 C17.3440823,15.4130401 15.6802897,15.6330526 14.2870897,16.4177975 C13.5919986,16.8111839 12.9632983,17.3454999 12.5086222,18.0613009 C12.0519342,18.7730463 11.789389,19.6520824 11.7914008,20.6385899 C11.789389,21.7133053 12.0710467,22.6612853 12.5730011,23.4064888 C13.3294534,24.5329122 14.4902857,25.1665887 15.6963844,25.5295586 C16.9145542,25.8894868 18.2202391,25.9979722 19.4223142,25.9979722 C21.5830316,25.9959445 23.8956429,25.3754484 25.7485486,24.0837623 C26.300799,23.7015286 26.7806231,23.2462954 27.187015,22.7312432 L27.187015,25.7668071 L28.9986779,25.7668071 L28.9986779,16.017314 C28.9916365,10.1114491 24.87038,8.58352831 19.3267517,8.57541725 L19.3267517,8.57541725 Z M87.5523079,7.44189674 L87.5523079,25.7668071 L89.3639708,25.7668071 L89.3639708,10.6112931 L95.9255906,10.6112931 L95.9255906,8.78934644 L89.3639708,8.78934644 L89.3639708,7.62642333 C89.3639708,3.26368741 92.2449273,1.88582124 97.0180203,1.87061301 C97.9434673,1.87061301 98.7502156,1.91218219 99.4272001,1.9689596 L99.4272001,0.108485416 C98.7592688,0.0446108251 98.0088521,0 97.2232281,0 C91.6795999,0.00912494151 87.5593493,1.53907347 87.5523079,7.44189674 L87.5523079,7.44189674 Z M72.1053917,15.9950086 L72.1053917,25.7647793 L73.9180606,25.7647793 L73.9180606,16.1795352 C73.9180606,11.8198409 76.7990171,10.4429886 81.5721101,10.4257526 C82.5005748,10.4257526 83.3043053,10.4673218 83.9833017,10.526127 L83.9833017,8.66261114 C83.3133586,8.59772266 82.5629419,8.5551396 81.7773179,8.5551396 C76.2367075,8.56223678 72.114445,10.0942131 72.1053917,15.9950086 L72.1053917,15.9950086 Z M11.8748922,8.66261114 C11.206961,8.59772266 10.4565442,8.5551396 9.67092027,8.5551396 C4.13030982,8.56223678 0.00704144393,10.0942131 0,15.9950086 L0,25.7647793 L1.81065701,25.7647793 L1.81065701,16.1795352 C1.81065701,11.8198409 4.69261942,10.4429886 9.4667184,10.4257526 C10.3921653,10.4257526 11.1969018,10.4673218 11.8748922,10.526127 L11.8748922,8.66261114 Z M131.661924,8.58150055 C129.490142,8.68593043 127.630195,9.741382 127.381732,9.88738106 L127.381732,0.232179067 L125.575099,0.232179067 L125.575099,25.7668071 L127.381732,25.7668071 L127.381732,11.8806738 C127.598005,11.7062861 129.094815,10.5991265 132.010979,10.4723912 C134.754124,10.3547808 138.186325,11.6454531 138.186325,15.9199813 L138.186325,25.7668071 L140,25.7668071 L140,15.9960225 C140,10.4774606 135.947146,8.37973795 131.661924,8.58150055 L131.661924,8.58150055 Z M59.7506754,24.1192482 C55.5026729,24.1040399 52.4014198,21.8136796 52.3943783,17.2836531 C52.4014198,12.7404461 55.5026729,10.4115583 59.7506754,10.3943223 C63.9946543,10.4115583 67.0989251,12.7404461 67.1049606,17.2836531 C67.0989251,21.8136796 63.9946543,24.1040399 59.7506754,24.1192482 L59.7506754,24.1192482 Z M59.7506754,8.5551396 C54.5369891,8.56730619 50.5656148,11.5521759 50.5545496,17.2836531 C50.5656148,23.0009359 54.5369891,25.9908751 59.7506754,26 C64.9653676,25.9908751 68.9377479,23.0009359 68.9468012,17.2836531 C68.9377479,11.5521759 64.9653676,8.56730619 59.7506754,8.5551396 L59.7506754,8.5551396 Z M48.8314077,10.4774606 L48.8314077,8.7913742 L31.9651377,8.7913742 L31.9651377,10.6102792 L46.3125826,10.6102792 L32.1793987,24.0837623 L32.1793987,25.7647793 L49.2196931,25.7647793 L49.2196931,23.9489159 L34.7102949,23.9489159 L48.8314077,10.4774606 Z M100.166552,25.7668071 L101.975197,25.7668071 L101.975197,8.7913742 L100.166552,8.7913742 L100.166552,25.7668071 Z M113.586538,15.94837 C110.696528,15.6148027 107.848767,15.6594135 107.895039,13.6286071 C107.904093,11.422399 110.173449,10.4004056 113.453756,10.3922945 C117.958269,10.4004056 119.79508,12.0976447 120.538455,12.7901263 L121.801891,11.4426766 C120.29301,9.91374201 117.618268,8.5551396 113.400443,8.5551396 C109.35463,8.56223678 106.097459,10.2371705 106.086394,13.6691624 C106.11456,17.2491811 109.792206,17.5107628 113.499023,17.8757604 C116.967437,18.1951334 120.398632,18.5662143 120.35236,20.9123382 C120.35236,23.0485884 117.376847,24.1141788 114.261511,24.1162065 C109.648359,24.112151 108.159596,22.5365778 107.022906,21.4882234 L105.57941,22.7099516 C106.932373,24.1608173 109.473329,26 114.226303,26 C119.603955,25.9979722 122.156981,23.4845578 122.162011,20.9123382 C122.138875,16.8912806 118.088032,16.4887693 113.586538,15.94837 L113.586538,15.94837 Z"></path>
        </g>
    </g>
</svg>