<?xml version="1.0" encoding="utf-8"?>
<!-- Generator: Adobe Illustrator 19.2.1, SVG Export Plug-In . SVG Version: 6.00 Build 0)  -->
<svg version="1.1" xmlns="http://www.w3.org/2000/svg" xmlns:xlink="http://www.w3.org/1999/xlink" x="0px" y="0px"
	 viewBox="0 0 341.4 88.6" style="enable-background:new 0 0 341.4 88.6;" xml:space="preserve">
<style type="text/css">
	.st0{fill:#9D9FA2;}
	.st1{clip-path:url(#SVGID_3_);}
	.st2{filter:url(#Adobe_OpacityMaskFilter);}
	.st3{mask:url(#SVGID_4_);}
	.st4{fill:url(#SVGID_5_);}
	.st5{filter:url(#Adobe_OpacityMaskFilter_1_);}
	.st6{mask:url(#SVGID_6_);}
	.st7{fill:url(#SVGID_7_);}
	.st8{opacity:0.71;clip-path:url(#SVGID_13_);}
	.st9{clip-path:url(#SVGID_16_);}
	.st10{fill:url(#SVGID_17_);}
	.st11{fill:url(#SVGID_18_);}
	.st12{fill:url(#SVGID_19_);}
	.st13{fill:url(#SVGID_20_);}
	.st14{fill:url(#SVGID_21_);}
	.st15{fill:url(#SVGID_22_);}
	.st16{fill:url(#SVGID_23_);}
</style>
<g id="old">
</g>
<g id="schriftzug">
	<g>
		<path class="st0" d="M289.2,36.8v31.5H300V37.4c0-4.3,3.5-7.8,7.8-7.8h5V19.3l-5.5,0C297.5,19.4,289.6,27.1,289.2,36.8L289.2,36.8
			z"/>
		<path class="st0" d="M329.1,50.2c0,0,0-19.5,0-20.6c1,0,11.9,0,11.9,0V19.3c0,0-10.9,0-11.9,0c0-1,0-9.7,0-9.7h-10.8v41.2
			c0.4,9.7,8.4,17.4,18,17.5l5.5,0V57.9h-5C332.6,57.9,329.1,54.4,329.1,50.2L329.1,50.2z"/>
		<path class="st0" d="M207.4,18.4c-5.4,0-10.5,2.4-13.8,6.5c-3.3-4.1-8.5-6.5-13.8-6.5c-9.4,0-17.2,7.3-17.7,16.7l0,33.2h10.9V36.4
			c0-4.4,3.3-7.9,7.6-7.9c3.5,0,7.7,2.4,7.7,9.1v30.6H199V37.7c0-6.3,3.9-9.1,7.6-9.1c4.5,0,7.7,3.2,7.7,7.9v31.8h10.8V35.1
			C224.5,25.7,216.8,18.4,207.4,18.4L207.4,18.4z"/>
		<path class="st0" d="M257,58.9c-8.1,0-14.7-6.8-14.7-15c0-8.2,6.6-15,14.7-15c8.1,0,14.6,6.8,14.6,15
			C271.6,52.7,265.6,58.9,257,58.9L257,58.9z M256.8,18.5c-14,0-25,11.1-25,25.3c0,14.8,10.6,25.5,25.2,25.5
			c5.7,0,10.7-2.1,13.9-5.6v4.6l10.8,0V43.9C281.8,29.2,271.2,18.5,256.8,18.5L256.8,18.5z"/>
		<path class="st0" d="M136.9,39c-10.5-1.2-12.6-3.1-12.6-5.9c0-4.5,6.8-5.1,9.9-5.1c5.2,0,10.3,2,13.9,5.2l6.9-6.9
			c-2.8-2.3-9.4-7.8-22.4-7.8c-12.9,0-19.9,7.8-19.9,15.2c0,8.8,6.8,13.7,20.8,15.3c5.9,0.6,10.3,1.5,10.3,5.6
			c0,7.6-18.9,6.8-26.5-1.6l-7.5,7.5c0.7,0.8,9.5,8.9,22.7,8.9c15.8,0,22.9-7.7,22.9-15C155.5,45.4,149.6,40.5,136.9,39L136.9,39z"
			/>
	</g>
</g>
<g id="c_ebene">
	<g id="c4">
		<g>
			<defs>
				<path id="SVGID_1_" d="M31.9,32c2.8-2.7,6.6-4.5,10.8-4.9c0.9-0.1,1.7-0.2,2.6-0.2c3.3,0,6.3,0.7,8.9,2c1.8,0.9,4.4,2.3,6,3.2
					c1.1,0.7,1.7-0.2,1.7-0.9c0-0.6,0-22.6,0-22.6c0-0.9-0.5-2.6-2.3-3.3c-4.8-2-9.7-4-16-4C32,1.3,21.2,5.8,13,13.9
					c-8.2,8.2-12.6,19-12.6,30.5C0.4,56,4.9,66.9,13,75c8.2,8.1,19,12.6,30.6,12.6c6.3,0,11.7-1.3,16.6-4c0,0,1.8-0.9,1.7-2.4
					l0-22.7c0-0.8-0.9-1.9-2.1-1.2c-5.3,2.9-8.9,5.1-14.6,5.1c-1,0-2-0.1-2.9-0.2c-2.8-0.3-5.4-1.3-7.7-2.7
					c-3.1-1.9-5.5-4.7-6.7-7.9c-0.9-2.1-1.4-4.4-1.4-6.9c0-3.4,1-6.6,2.6-9.2C29.9,34.2,30.8,33,31.9,32z"/>
			</defs>
			<linearGradient id="SVGID_2_" gradientUnits="userSpaceOnUse" x1="9.6885" y1="71.3012" x2="71.8047" y2="19.1795">
				<stop  offset="8.333330e-02" style="stop-color:#5A656B"/>
				<stop  offset="0.1209" style="stop-color:#5D676D"/>
				<stop  offset="0.1675" style="stop-color:#656D73"/>
				<stop  offset="0.219" style="stop-color:#73787E"/>
				<stop  offset="0.274" style="stop-color:#86898E"/>
				<stop  offset="0.3312" style="stop-color:#9EA0A3"/>
				<stop  offset="0.375" style="stop-color:#B5B7B9"/>
				<stop  offset="0.5583" style="stop-color:#C7C8CB"/>
				<stop  offset="0.6599" style="stop-color:#AFB1B4"/>
				<stop  offset="0.7178" style="stop-color:#A0A2A7"/>
				<stop  offset="0.7773" style="stop-color:#A0A3A7"/>
				<stop  offset="0.8347" style="stop-color:#A1A4A8"/>
				<stop  offset="0.8912" style="stop-color:#A1A5A9"/>
				<stop  offset="0.9325" style="stop-color:#9FA4A8"/>
			</linearGradient>
			<use xlink:href="#SVGID_1_"  style="overflow:visible;fill:url(#SVGID_2_);"/>
			<clipPath id="SVGID_3_">
				<use xlink:href="#SVGID_1_"  style="overflow:visible;"/>
			</clipPath>
			<g class="st1">
				
					<image style="overflow:visible;" width="412" height="462" xlink:href="DB3C77750474951E.png"  transform="matrix(0.24 0 0 0.24 -16 -14.4873)">
				</image>
			</g>
			<g class="st1">
				
					<image style="overflow:visible;" width="629" height="544" xlink:href="DB3C777504749519.png"  transform="matrix(0.24 0 0 0.24 -40.3501 7.0639)">
				</image>
			</g>
			<g class="st1">
				
					<image style="overflow:visible;" width="536" height="448" xlink:href="DB3C77750474951B.png"  transform="matrix(0.24 0 0 0.24 -27.8447 -37.4112)">
				</image>
			</g>
		</g>
	</g>
	<g id="c3">
		<g>
			<defs>
				<filter id="Adobe_OpacityMaskFilter" filterUnits="userSpaceOnUse" x="58.2" y="24.5" width="3.3" height="7.4">
					<feFlood  style="flood-color:white;flood-opacity:1" result="back"/>
					<feBlend  in="SourceGraphic" in2="back" mode="normal"/>
				</filter>
			</defs>
			<mask maskUnits="userSpaceOnUse" x="58.2" y="24.5" width="3.3" height="7.4" id="SVGID_4_">
				<g class="st2">
					
						<image style="overflow:visible;" width="31" height="48" xlink:href="DB3C77750474951A.jpg"  transform="matrix(0.24 0 0 0.24 56.2207 22.5385)">
					</image>
				</g>
			</mask>
			<g class="st3">
				
					<linearGradient id="SVGID_5_" gradientUnits="userSpaceOnUse" x1="58.1308" y1="1756.0089" x2="61.7084" y2="1756.0713" gradientTransform="matrix(1 0 0 -1 0 1784.2578)">
					<stop  offset="4.945060e-02" style="stop-color:#E2E1E1"/>
					<stop  offset="0.3422" style="stop-color:#DFDEDE"/>
					<stop  offset="0.4775" style="stop-color:#D5D4D5"/>
					<stop  offset="0.5803" style="stop-color:#C6C6C8"/>
					<stop  offset="0.6668" style="stop-color:#B2B3B6"/>
					<stop  offset="0.7422" style="stop-color:#9A9DA2"/>
					<stop  offset="0.7594" style="stop-color:#93979C"/>
					<stop  offset="0.8185" style="stop-color:#A2A4A9"/>
					<stop  offset="0.9329" style="stop-color:#CBCCCE"/>
					<stop  offset="0.9945" style="stop-color:#E9E8E9"/>
				</linearGradient>
				<path class="st4" d="M60.8,31.7c0,0-0.9-5.3-2.4-6.6c-1.1-1.2,3.1,0,3.1,0s-0.1,6.3-0.1,6.5C61.4,31.8,61,32.1,60.8,31.7z"/>
			</g>
		</g>
		<g>
			<defs>
				<filter id="Adobe_OpacityMaskFilter_1_" filterUnits="userSpaceOnUse" x="57.7" y="57.6" width="3.8" height="7.1">
					<feFlood  style="flood-color:white;flood-opacity:1" result="back"/>
					<feBlend  in="SourceGraphic" in2="back" mode="normal"/>
				</filter>
			</defs>
			<mask maskUnits="userSpaceOnUse" x="57.7" y="57.6" width="3.8" height="7.1" id="SVGID_6_">
				<g class="st5">
					
						<image style="overflow:visible;" width="33" height="47" xlink:href="DB3C777504749526.jpg"  transform="matrix(0.24 0 0 0.24 55.7075 55.6484)">
					</image>
				</g>
			</mask>
			<g class="st6">
				<linearGradient id="SVGID_7_" gradientUnits="userSpaceOnUse" x1="57.7824" y1="61.0677" x2="61.8906" y2="61.355">
					<stop  offset="0" style="stop-color:#E2E1E1"/>
					<stop  offset="0.2219" style="stop-color:#D9D8D9"/>
					<stop  offset="0.5137" style="stop-color:#C3C4C6"/>
					<stop  offset="0.5828" style="stop-color:#BDBEC1"/>
					<stop  offset="0.6464" style="stop-color:#B3B5B8"/>
					<stop  offset="0.7532" style="stop-color:#9A9DA2"/>
					<stop  offset="0.773" style="stop-color:#95989D"/>
					<stop  offset="0.8134" style="stop-color:#A6A8AC"/>
					<stop  offset="0.8705" style="stop-color:#B8B9BD"/>
					<stop  offset="0.9299" style="stop-color:#C4C4C7"/>
					<stop  offset="0.9945" style="stop-color:#C7C8CB"/>
				</linearGradient>
				<path class="st7" d="M60.9,57.9c0,0-0.7,4.5-3.2,6.7c-0.6,0.6,3.7-0.2,3.7-0.2s-0.1-6.3-0.1-6.5C61.4,57.7,61.2,57.5,60.9,57.9z
					"/>
			</g>
		</g>
		<g>
			<defs>
				<path id="SVGID_8_" d="M43.5,86.8c-23.4,0-42.4-19-42.4-42.4C1.1,21.1,20.1,2,43.5,2c6.2,0,11.3,1.9,16,3.8
					c1.8,0.8,1.9,2.7,1.9,2.8l0,16.7c-0.1,0.6-0.4,1.2-1.1,1.2c-0.2,0-0.5-0.1-0.7-0.2c-5.1-2.9-9.6-4.3-14.3-4.3
					c-1.1,0-2.2,0.1-3.4,0.2c-5.1,0.4-10,2.6-13.6,6.2c-1.4,1.3-2.6,2.8-3.5,4.3c-2.2,3.5-3.3,7.6-3.3,11.7c0,3,0.6,5.9,1.8,8.7
					c1.4,4,4.4,7.6,8.4,10.1c2.9,1.9,6.3,3.1,9.8,3.5c1.2,0.2,2.5,0.3,3.7,0.3c5.2,0,9.7-1.9,13.9-4c0.4-0.2,0.7-0.3,1-0.3
					c0.9,0,1.3,0.8,1.3,1.4l-0.2,16.3c0,0,0,1.3-1.3,2.2C55.2,85.5,49.7,86.8,43.5,86.8L43.5,86.8z"/>
			</defs>
			<linearGradient id="SVGID_9_" gradientUnits="userSpaceOnUse" x1="10.2796" y1="70.7755" x2="71.42" y2="19.4727">
				<stop  offset="6.748470e-02" style="stop-color:#7F848A"/>
				<stop  offset="0.1345" style="stop-color:#8D9196"/>
				<stop  offset="0.2649" style="stop-color:#B4B6B9"/>
				<stop  offset="0.3804" style="stop-color:#E2E2E3"/>
				<stop  offset="0.4348" style="stop-color:#D7D7D8"/>
				<stop  offset="0.5263" style="stop-color:#BABBBF"/>
				<stop  offset="0.6431" style="stop-color:#92959A"/>
				<stop  offset="0.6871" style="stop-color:#82878D"/>
				<stop  offset="0.8058" style="stop-color:#D6D6D8"/>
				<stop  offset="0.8251" style="stop-color:#D4D4D6"/>
				<stop  offset="0.832" style="stop-color:#CCCDCF"/>
				<stop  offset="0.837" style="stop-color:#C0C1C4"/>
				<stop  offset="0.841" style="stop-color:#AFB0B4"/>
				<stop  offset="0.8443" style="stop-color:#9A9DA2"/>
				<stop  offset="0.8464" style="stop-color:#8B8F94"/>
			</linearGradient>
			<use xlink:href="#SVGID_8_"  style="overflow:visible;fill:url(#SVGID_9_);"/>
			<clipPath id="SVGID_10_">
				<use xlink:href="#SVGID_8_"  style="overflow:visible;"/>
			</clipPath>
			<g transform="matrix(1 0 0 1 0 9.536743e-07)" style="clip-path:url(#SVGID_10_);">
				
					<image style="overflow:visible;" width="506" height="507" xlink:href="DB3C777504749526.png"  transform="matrix(0.24 0 0 0.24 -16.7466 -15.7769)">
				</image>
			</g>
			<g style="clip-path:url(#SVGID_10_);">
				
					<image style="overflow:visible;" width="470" height="437" xlink:href="DB3C77750474952A.png"  transform="matrix(0.24 0 0 0.24 -21.7466 -50.4834)">
				</image>
			</g>
		</g>
	</g>
	<g id="c1">
		<g>
			<defs>
				<path id="SVGID_11_" d="M59.5,63.6c-4.2,2.1-8.8,4-14.1,4c-1.3,0-2.6-0.1-3.8-0.3c-3.6-0.4-7-1.6-10-3.5
					c-4.1-2.5-7.1-6.1-8.6-10.3c-1.2-2.7-1.8-5.7-1.8-8.9c0-4.4,1.2-8.5,3.4-12c1-1.6,2.2-3.1,3.6-4.5c3.7-3.5,8.5-5.9,13.9-6.3
					c1.1-0.1,2.3-0.2,3.4-0.2c5.5,0,10.3,1.9,14.6,4.4c0.8,0.5,1-0.6,1-0.6V8.7c0,0-0.1-1.7-1.6-2.4c-4.7-1.9-9.8-3.8-15.8-3.8
					C20.5,2.6,1.7,21.3,1.7,44.5c0,23.2,18.7,41.9,41.9,41.9c6.3,0,11.7-1.4,16.3-4c1.1-0.7,1-1.8,1-1.8l0.2-16.3
					C61.1,64.3,61,62.8,59.5,63.6z"/>
			</defs>
			<linearGradient id="SVGID_12_" gradientUnits="userSpaceOnUse" x1="12.7548" y1="72.8508" x2="69.5158" y2="16.0898">
				<stop  offset="7.291670e-02" style="stop-color:#707479"/>
				<stop  offset="0.1807" style="stop-color:#90949A"/>
				<stop  offset="0.4145" style="stop-color:#EEEFF8"/>
				<stop  offset="0.4641" style="stop-color:#E6E7EF"/>
				<stop  offset="0.5243" style="stop-color:#D7D8DF"/>
				<stop  offset="0.59" style="stop-color:#BFC2C8"/>
				<stop  offset="0.6591" style="stop-color:#A0A4A9"/>
				<stop  offset="0.6783" style="stop-color:#979BA0"/>
				<stop  offset="0.9939" style="stop-color:#73787E"/>
			</linearGradient>
			<use xlink:href="#SVGID_11_"  style="overflow:visible;fill:url(#SVGID_12_);"/>
			<clipPath id="SVGID_13_">
				<use xlink:href="#SVGID_11_"  style="overflow:visible;"/>
			</clipPath>
			<g class="st8">
				
					<image style="overflow:visible;" width="514" height="663" xlink:href="DB3C777504749529.png"  transform="matrix(0.24 0 0 0.24 -14.6143 -20.1802)">
				</image>
			</g>
		</g>
		<g id="Ebene_7">
		</g>
	</g>
</g>
<g id="dreieck">
	<g id="d1">
		<g>
			<defs>
				<path id="SVGID_14_" d="M63.6,7.8c0,0.6,0,62.7,0,72c0,0.7,0.5,0.8,0.7,0.7c11.4-8.2,23.3-26,27.1-36.7
					C87.7,33.2,75.9,15.6,64.6,7.2C64.3,7,63.6,7.1,63.6,7.8z"/>
			</defs>
			<linearGradient id="SVGID_15_" gradientUnits="userSpaceOnUse" x1="45.911" y1="62.5068" x2="83.2662" y2="25.1516">
				<stop  offset="4.907980e-02" style="stop-color:#865F21"/>
				<stop  offset="0.1627" style="stop-color:#A17423"/>
				<stop  offset="0.3681" style="stop-color:#E6AE1C"/>
				<stop  offset="0.4509" style="stop-color:#DCA51E"/>
				<stop  offset="0.5674" style="stop-color:#C18F22"/>
				<stop  offset="0.7034" style="stop-color:#9A6E23"/>
				<stop  offset="0.7669" style="stop-color:#865F21"/>
				<stop  offset="0.8791" style="stop-color:#896021"/>
				<stop  offset="0.9195" style="stop-color:#906722"/>
				<stop  offset="0.9483" style="stop-color:#9F7223"/>
				<stop  offset="0.9716" style="stop-color:#B58423"/>
				<stop  offset="0.9913" style="stop-color:#D39E20"/>
				<stop  offset="1" style="stop-color:#E6AE1C"/>
			</linearGradient>
			<use xlink:href="#SVGID_14_"  style="overflow:visible;fill:url(#SVGID_15_);"/>
			<clipPath id="SVGID_16_">
				<use xlink:href="#SVGID_14_"  style="overflow:visible;"/>
			</clipPath>
			<g class="st9">
				
					<image style="overflow:visible;" width="448" height="588" xlink:href="DB3C77750474952E.png"  transform="matrix(0.24 0 0 0.24 27.3032 -18.2808)">
				</image>
			</g>
		</g>
	</g>
	<linearGradient id="SVGID_17_" gradientUnits="userSpaceOnUse" x1="64.5657" y1="43.957" x2="67.414" y2="43.957">
		<stop  offset="0.1562" style="stop-color:#FDBB30"/>
		<stop  offset="0.7088" style="stop-color:#FDDFB2"/>
		<stop  offset="0.8187" style="stop-color:#7B571B"/>
		<stop  offset="0.874" style="stop-color:#996F25"/>
		<stop  offset="0.9249" style="stop-color:#AF812A"/>
		<stop  offset="0.9686" style="stop-color:#BD8D2D"/>
		<stop  offset="1" style="stop-color:#C3922F"/>
	</linearGradient>
	<path class="st10" d="M66.3,76.7c-0.1,0-0.2,0-0.3,0l-0.4-65.4c0.1,0.1,0.3,0.1,0.6,0.1c1,0,1.3-0.3,1.3-0.3S65,8.4,64.7,8.3
		c-0.2-0.1,0,0.4,0.1,1c0.1,0.6,0.1,1,0.2,1.2c0,2.6,0,8.2,0,15.1c0,0.2,0.6,3.6,0.6,3.8c0,10.9,0.1,17.4,0.1,28.1
		c0,0.3-0.7,4.7-0.7,5c0,8.4,0,14.5,0,15.2c0,0.2,0,0.6-0.2,1.2c-0.1,0.6-0.4,0.8-0.2,0.8c0.4,0,2.3-2.5,2.3-2.5
		S67.2,76.7,66.3,76.7z"/>
	<g id="Ebene_14">
		
			<linearGradient id="SVGID_18_" gradientUnits="userSpaceOnUse" x1="63.0416" y1="11.9983" x2="66.7064" y2="9.4322" gradientTransform="matrix(0.9982 5.950000e-02 -5.950000e-02 0.9982 0.3898 -4.0498)">
			<stop  offset="0.6626" style="stop-color:#FABE60"/>
			<stop  offset="0.6983" style="stop-color:#FABF62"/>
			<stop  offset="0.7219" style="stop-color:#FAC26A"/>
			<stop  offset="0.7421" style="stop-color:#FBC776"/>
			<stop  offset="0.7603" style="stop-color:#FCCE87"/>
			<stop  offset="0.7669" style="stop-color:#FCD18E"/>
			<stop  offset="0.8405" style="stop-color:#85651A"/>
			<stop  offset="0.8653" style="stop-color:#967120"/>
			<stop  offset="0.9005" style="stop-color:#AA8026"/>
			<stop  offset="0.9352" style="stop-color:#B7892B"/>
			<stop  offset="0.9688" style="stop-color:#BF8F2E"/>
			<stop  offset="1" style="stop-color:#C3922F"/>
		</linearGradient>
		<path class="st11" d="M65,10.6c0,0-0.1-0.5-0.2-1.4c-0.1-0.6-0.4-1-0.1-1C65,8.2,67.4,11,67.4,11s-0.3,0.2-1.3,0.3
			C65.2,11.3,65,10.6,65,10.6z"/>
		
			<linearGradient id="SVGID_19_" gradientUnits="userSpaceOnUse" x1="63.0132" y1="3504.1284" x2="66.1803" y2="3502.3" gradientTransform="matrix(1 0 0 -1 0 3580.7754)">
			<stop  offset="0.3436" style="stop-color:#F8B034"/>
			<stop  offset="0.4233" style="stop-color:#F8B137"/>
			<stop  offset="0.4831" style="stop-color:#F8B440"/>
			<stop  offset="0.5364" style="stop-color:#F9B950"/>
			<stop  offset="0.5858" style="stop-color:#FAC065"/>
			<stop  offset="0.6327" style="stop-color:#FBC97D"/>
			<stop  offset="0.677" style="stop-color:#FDD598"/>
			<stop  offset="0.7088" style="stop-color:#FDDFB2"/>
			<stop  offset="0.8073" style="stop-color:#85651A"/>
			<stop  offset="0.8099" style="stop-color:#87661A"/>
			<stop  offset="0.8684" style="stop-color:#B48724"/>
			<stop  offset="0.9216" style="stop-color:#D8A12B"/>
			<stop  offset="0.9672" style="stop-color:#F0B22F"/>
			<stop  offset="1" style="stop-color:#FDBB30"/>
		</linearGradient>
		<path class="st12" d="M65,77.5c0,0,0,0.4-0.2,1.3c-0.1,0.6-0.4,0.8-0.2,0.8c0.4,0,2.3-2.5,2.3-2.5s0.3-0.4-0.7-0.4
			C65.3,76.6,65,77.5,65,77.5z"/>
	</g>
	<g id="Ebene_13">
	</g>
	<g id="d3">
		<g>
			
				<linearGradient id="SVGID_20_" gradientUnits="userSpaceOnUse" x1="90.0654" y1="106.0285" x2="90.0654" y2="40.2137" gradientTransform="matrix(1.0136 0 0 1.0335 -13.3516 -31.6927)">
				<stop  offset="0.1104" style="stop-color:#F6C06A"/>
				<stop  offset="0.179" style="stop-color:#F6C36E"/>
				<stop  offset="0.2576" style="stop-color:#F9CE79"/>
				<stop  offset="0.2761" style="stop-color:#F9D27D"/>
				<stop  offset="0.5362" style="stop-color:#FDBB30"/>
				<stop  offset="0.7048" style="stop-color:#FCBA35"/>
				<stop  offset="0.8878" style="stop-color:#F9B643"/>
				<stop  offset="0.9188" style="stop-color:#F9B646"/>
			</linearGradient>
			<path class="st13" d="M65.7,77.9l-0.2-0.1c-0.2-0.2-0.2-0.5-0.2-1.1c0-6.6,0-43.1,0-64.2l0-1.4c0-0.5,0-0.8,0.2-1
				c0.1-0.1,0.2-0.2,0.4-0.2c0.2,0,0.5,0.1,0.8,0.4c8.8,6.4,20.4,23.7,23.7,33.5l0,0.1l0,0.1C87.2,53.6,75.5,71,66.6,77.5l-0.2,0.1
				c-0.2,0.2-0.3,0.3-0.5,0.3H65.7z"/>
			
				<linearGradient id="SVGID_21_" gradientUnits="userSpaceOnUse" x1="78.0288" y1="73.121" x2="102.0834" y2="73.121" gradientTransform="matrix(1.0136 0 0 1.0335 -13.3516 -31.6927)">
				<stop  offset="7.361960e-02" style="stop-color:#F7C34D"/>
				<stop  offset="0.1544" style="stop-color:#F6BE44"/>
				<stop  offset="0.3885" style="stop-color:#F3B22C"/>
				<stop  offset="0.5362" style="stop-color:#F2AE23"/>
				<stop  offset="0.9693" style="stop-color:#BE861F"/>
			</linearGradient>
			<path class="st14" d="M65.7,11c0,0.7,0,57.2,0,65.6c0,1.2,0.1,1,0.6,0.6c8.6-6.3,20.4-23.7,23.7-33.4c-3.3-9.7-14.9-27-23.5-33.3
				C65.7,9.9,65.7,10.4,65.7,11z"/>
		</g>
		<g>
			
				<linearGradient id="SVGID_22_" gradientUnits="userSpaceOnUse" x1="65.2855" y1="58.5888" x2="65.2855" y2="11.8207" gradientTransform="matrix(2.2325 0 0 0.9007 -80.2363 7.1002)">
				<stop  offset="5.729170e-02" style="stop-color:#FABF74"/>
				<stop  offset="0.5469" style="stop-color:#FFFFFF"/>
				<stop  offset="0.5888" style="stop-color:#FFFDF9"/>
				<stop  offset="0.6312" style="stop-color:#FFF8EC"/>
				<stop  offset="0.6739" style="stop-color:#FFF1DA"/>
				<stop  offset="0.7168" style="stop-color:#FFE9C2"/>
				<stop  offset="0.7599" style="stop-color:#FFDEA4"/>
				<stop  offset="0.8031" style="stop-color:#FFD280"/>
				<stop  offset="0.8456" style="stop-color:#FEC353"/>
				<stop  offset="0.8698" style="stop-color:#FDBB30"/>
			</linearGradient>
			<line class="st15" x1="65.5" y1="17.7" x2="65.5" y2="59.9"/>
			
				<linearGradient id="SVGID_23_" gradientUnits="userSpaceOnUse" x1="65.2527" y1="60.432" x2="65.2527" y2="21.1526" gradientTransform="matrix(2.2325 0 0 0.9007 -80.2363 7.1002)">
				<stop  offset="2.604170e-02" style="stop-color:#FABC49"/>
				<stop  offset="0.1096" style="stop-color:#FCCA74"/>
				<stop  offset="0.2219" style="stop-color:#FEDBA1"/>
				<stop  offset="0.3257" style="stop-color:#FEE9C6"/>
				<stop  offset="0.4178" style="stop-color:#FFF3E2"/>
				<stop  offset="0.4947" style="stop-color:#FFFBF5"/>
				<stop  offset="0.5469" style="stop-color:#FFFFFF"/>
				<stop  offset="0.6217" style="stop-color:#FFFDFA"/>
				<stop  offset="0.6797" style="stop-color:#FFF9EF"/>
				<stop  offset="0.7321" style="stop-color:#FFF3E0"/>
				<stop  offset="0.7812" style="stop-color:#FFECCD"/>
				<stop  offset="0.828" style="stop-color:#FFE3B3"/>
				<stop  offset="0.8731" style="stop-color:#FFD995"/>
				<stop  offset="0.916" style="stop-color:#FFCD73"/>
				<stop  offset="0.9531" style="stop-color:#FEC14B"/>
			</linearGradient>
			<polygon class="st16" points="65.8,59.9 65.2,61.5 65.1,26.2 65.7,28.1 			"/>
		</g>
	</g>
</g>
</svg>
