<?xml version="1.0" encoding="UTF-8" standalone="no"?>
<svg width="58px" height="45px" viewBox="0 0 58 45" version="1.1" xmlns="http://www.w3.org/2000/svg" xmlns:xlink="http://www.w3.org/1999/xlink">
    <!-- Generator: Sketch 3.6.1 (26313) - http://www.bohemiancoding.com/sketch -->
    <title>quote</title>
    <desc>Created with Sketch.</desc>
    <defs></defs>
    <g id="Page-1" stroke="none" stroke-width="1" fill="none" fill-rule="evenodd">
        <path d="M28.0666957,4.40024444 L25.7006087,0.000522222222 C9.13017391,8.63024444 -0.000260869565,19.1243 -0.000260869565,32.6629111 C-0.000260869565,40.6163556 4.05886957,45.0160778 11.1597391,45.0160778 C18.0910435,45.0160778 22.1501739,39.4309111 22.1501739,34.8614667 C22.1501739,29.9551889 18.5971304,25.8923 11.4962609,25.8923 L8.45452174,25.8923 C10.1449565,16.2468556 17.7545217,9.98541111 28.0666957,4.40024444 M57.824087,4.40024444 L55.458,0.000522222222 C38.8875652,8.63024444 29.7571304,19.1243 29.7571304,32.6629111 C29.7571304,40.6163556 33.8162609,45.0160778 40.9171304,45.0160778 C47.8484348,45.0160778 51.9075652,39.4309111 51.9075652,34.8614667 C51.9075652,29.9551889 48.3571304,25.8923 41.2536522,25.8923 L38.211913,25.8923 C39.9023478,16.2468556 47.511913,9.98541111 57.824087,4.40024444" id="quote" fill="#221F20"></path>
    </g>
</svg>