<?xml version="1.0" encoding="UTF-8" standalone="no"?>
<svg width="95px" height="95px" viewBox="0 0 95 95" version="1.1" xmlns="http://www.w3.org/2000/svg" xmlns:xlink="http://www.w3.org/1999/xlink" xmlns:sketch="http://www.bohemiancoding.com/sketch/ns">
    <!-- Generator: Sketch 3.5.2 (25235) - http://www.bohemiancoding.com/sketch -->
    <title>play-icon</title>
    <desc>Created with Sketch.</desc>
    <defs></defs>
    <g id="Page-1" stroke="none" stroke-width="1" fill="none" fill-rule="evenodd" sketch:type="MSPage">
        <g id="v" sketch:type="MSArtboardGroup" transform="translate(-19.000000, -17.000000)" fill="#FFFFFF">
            <path d="M59.3787,77.2273 L80.3347,65.1283 L59.3787,53.0293 L59.3787,77.2273 Z M65.8857,107.2813 C42.1317,107.2813 22.8757,88.0313 22.8757,64.2853 C22.8757,40.5393 42.1317,21.2903 65.8857,21.2903 C89.6397,21.2903 108.8957,40.5393 108.8957,64.2853 C108.8957,88.0313 89.6397,107.2813 65.8857,107.2813 L65.8857,107.2813 Z M66.4177,17.1653 C40.2297,17.1653 18.9997,38.3943 18.9997,64.5823 C18.9997,90.7703 40.2297,112.0003 66.4177,112.0003 C92.6057,112.0003 113.8347,90.7703 113.8347,64.5823 C113.8347,38.3943 92.6057,17.1653 66.4177,17.1653 L66.4177,17.1653 Z" id="play-icon" sketch:type="MSShapeGroup"></path>
        </g>
    </g>
</svg>