<?xml version="1.0" encoding="UTF-8" standalone="no"?>
<svg width="146px" height="26px" viewBox="0 0 146 26" version="1.1" xmlns="http://www.w3.org/2000/svg" xmlns:xlink="http://www.w3.org/1999/xlink" xmlns:sketch="http://www.bohemiancoding.com/sketch/ns">
    <!-- Generator: Sketch 3.5.1 (25234) - http://www.bohemiancoding.com/sketch -->
    <title>razorfish_logo</title>
    <desc>Created with Sketch.</desc>
    <defs></defs>
    <g id="Page-1" stroke="none" stroke-width="1" fill="none" fill-rule="evenodd" sketch:type="MSPage">
        <path d="M27.0184,18.1808 C27.0084,20.1328 26.0684,21.5418 24.5914,22.5888 C23.1224,23.6158 21.1194,24.1488 19.3084,24.1448 C17.8584,24.1488 16.2914,23.9638 15.2114,23.4228 C14.6694,23.1528 14.2554,22.8158 13.9744,22.3958 C13.6944,21.9738 13.5194,21.4568 13.5154,20.7118 C13.5194,20.0648 13.6734,19.5878 13.9314,19.1818 C14.3154,18.5798 14.9964,18.1068 15.8724,17.7988 C16.7384,17.4888 17.7724,17.3478 18.7434,17.3478 L18.7524,17.3478 L27.0274,17.3478 C27.0274,17.5848 27.0184,18.1368 27.0184,18.1808 L27.0184,18.1808 Z M19.2134,8.8138 C18.1094,8.8138 17.0704,8.8998 16.2394,9.0018 L16.2394,10.7818 C17.0484,10.6898 18.1134,10.6078 19.4174,10.6078 C23.8634,10.6228 26.6554,11.8608 26.9924,15.5528 L18.7524,15.5528 C17.2424,15.5578 15.5884,15.7748 14.2034,16.5488 C13.5124,16.9368 12.8874,17.4638 12.4354,18.1698 C11.9814,18.8718 11.7204,19.7388 11.7224,20.7118 C11.7204,21.7718 12.0004,22.7068 12.4994,23.4418 C13.2514,24.5528 14.4054,25.1778 15.6044,25.5358 C16.8154,25.8908 18.1134,25.9978 19.3084,25.9978 C21.4564,25.9958 23.7554,25.3838 25.5974,24.1098 C26.1464,23.7328 26.6234,23.2838 27.0274,22.7758 L27.0274,25.7698 L28.8284,25.7698 L28.8284,16.1538 C28.8214,10.3288 24.7244,8.8218 19.2134,8.8138 L19.2134,8.8138 Z M87.0374,7.6958 L87.0374,25.7698 L88.8384,25.7698 L88.8384,10.8218 L95.3614,10.8218 L95.3614,9.0248 L88.8384,9.0248 L88.8384,7.8778 C88.8384,3.5748 91.7024,2.2158 96.4474,2.2008 C97.3674,2.2008 98.1694,2.2418 98.8424,2.2978 L98.8424,0.4628 C98.1784,0.3998 97.4324,0.3558 96.6514,0.3558 C91.1404,0.3648 87.0444,1.8738 87.0374,7.6958 L87.0374,7.6958 Z M71.6814,16.1318 L71.6814,25.7678 L73.4834,25.7678 L73.4834,16.3138 C73.4834,12.0138 76.3474,10.6558 81.0924,10.6388 C82.0154,10.6388 82.8144,10.6798 83.4894,10.7378 L83.4894,8.8998 C82.8234,8.8358 82.0774,8.7938 81.2964,8.7938 C75.7884,8.8008 71.6904,10.3118 71.6814,16.1318 L71.6814,16.1318 Z M11.8054,8.8998 C11.1414,8.8358 10.3954,8.7938 9.6144,8.7938 C4.1064,8.8008 0.0074,10.3118 0.0004,16.1318 L0.0004,25.7678 L1.8004,25.7678 L1.8004,16.3138 C1.8004,12.0138 4.6654,10.6558 9.4114,10.6388 C10.3314,10.6388 11.1314,10.6798 11.8054,10.7378 L11.8054,8.8998 Z M130.8874,8.8198 C128.7284,8.9228 126.8794,9.9638 126.6324,10.1078 L126.6324,0.5848 L124.8364,0.5848 L124.8364,25.7698 L126.6324,25.7698 L126.6324,12.0738 C126.8474,11.9018 128.3354,10.8098 131.2344,10.6848 C133.9614,10.5688 137.3734,11.8418 137.3734,16.0578 L137.3734,25.7698 L139.1764,25.7698 L139.1764,16.1328 C139.1764,10.6898 135.1474,8.6208 130.8874,8.8198 L130.8874,8.8198 Z M59.3994,24.1448 C55.1764,24.1298 52.0934,21.8708 52.0864,17.4028 C52.0934,12.9218 55.1764,10.6248 59.3994,10.6078 C63.6184,10.6248 66.7044,12.9218 66.7104,17.4028 C66.7044,21.8708 63.6184,24.1298 59.3994,24.1448 L59.3994,24.1448 Z M59.3994,8.7938 C54.2164,8.8058 50.2684,11.7498 50.2574,17.4028 C50.2684,23.0418 54.2164,25.9908 59.3994,25.9998 C64.5834,25.9908 68.5324,23.0418 68.5414,17.4028 C68.5324,11.7498 64.5834,8.8058 59.3994,8.7938 L59.3994,8.7938 Z M48.5444,10.6898 L48.5444,9.0268 L31.7774,9.0268 L31.7774,10.8208 L46.0404,10.8208 L31.9904,24.1098 L31.9904,25.7678 L48.9304,25.7678 L48.9304,23.9768 L34.5064,23.9768 L48.5444,10.6898 Z M99.5774,25.7698 L101.3754,25.7698 L101.3754,9.0268 L99.5774,9.0268 L99.5774,25.7698 Z M112.9184,16.0858 C110.0454,15.7568 107.2144,15.8008 107.2604,13.7978 C107.2694,11.6218 109.5254,10.6138 112.7864,10.6058 C117.2644,10.6138 119.0904,12.2878 119.8294,12.9708 L121.0854,11.6418 C119.5854,10.1338 116.9264,8.7938 112.7334,8.7938 C108.7114,8.8008 105.4734,10.4528 105.4624,13.8378 C105.4904,17.3688 109.1464,17.6268 112.8314,17.9868 C116.2794,18.3018 119.6904,18.6678 119.6444,20.9818 C119.6444,23.0888 116.6864,24.1398 113.5894,24.1418 C109.0034,24.1378 107.5234,22.5838 106.3934,21.5498 L104.9584,22.7548 C106.3034,24.1858 108.8294,25.9998 113.5544,25.9998 C118.9004,25.9978 121.4384,23.5188 121.4434,20.9818 C121.4204,17.0158 117.3934,16.6188 112.9184,16.0858 L112.9184,16.0858 Z M145.2024,23.9408 L144.4994,25.4968 L143.8034,23.9408 L143.4244,23.9408 L143.4244,25.7678 L143.6654,25.7678 L143.6654,24.2108 L144.3774,25.7678 L144.6224,25.7678 L145.3314,24.2108 L145.3314,25.7678 L145.5644,25.7678 L145.5644,23.9408 L145.2024,23.9408 Z M141.3164,24.1578 L142.0404,24.1578 L142.0404,25.7678 L142.2924,25.7678 L142.2924,24.1578 L143.0244,24.1578 L143.0244,23.9408 L141.3164,23.9408 L141.3164,24.1578 Z" id="razorfish_logo" fill="#404040" sketch:type="MSShapeGroup"></path>
    </g>
</svg>